<?xml version="1.0" encoding="UTF-8" standalone="no"?>
<svg
   viewBox="0 0 407.53708 488.40948"
   version="1.1"
   id="svg1"
   xml:space="preserve"
   width="407.53708"
   height="488.40948"
   xmlns="http://www.w3.org/2000/svg"
   xmlns:svg="http://www.w3.org/2000/svg"><defs
     id="defs1" /><!--! Font Awesome Free 6.7.2 by @fontawesome - https://fontawesome.com License - https://fontawesome.com/license/free (Icons: CC BY 4.0, Fonts: SIL OFL 1.1, Code: MIT License) Copyright 2024 Fonticons, Inc. --><g
     id="layer1"
     style="display:inline"
     transform="translate(-53.595703,-7.7398922)"><path
       id="path2"
       style="display:inline;fill:#000000;stroke:none;stroke-width:1px;stroke-linecap:butt;stroke-linejoin:miter;stroke-opacity:1"
       d="M 224.10742,7.8027344 C 170.24474,9.1076559 111.71237,30.822196 53.595703,81.048828 L 148.76419,147.06617 C 320.21694,45.744231 472.25599,259.92755 354.8242,372.25003 l 36.03908,33.4277 C 549.27984,258.80559 416.47415,3.1423004 224.10742,7.8027344 Z M 242.44141,142.05859 c -23.03128,0.27421 -47.10666,6.95882 -70.51172,21.85938 l 9.85937,22.18555 11.70899,-1.23243 3.69726,25.26563 c -30.84125,19.26807 -62.07098,38.41594 -72.09961,64.08789 -30.449981,-8.22939 -42.383245,6.33083 -51.763669,24.0332 l 102.294919,46.21875 -29.57812,111.53906 -31.42969,-11.09374 -10.47461,36.9746 c 47.43496,36.69015 67.23255,-7.22581 96.74805,-22.80078 l 16.63867,19.71875 c 9.91324,-3.33252 105.6197,-29.31625 74.56445,-66.55273 l -14.48047,2.15625 0.30665,-18.17774 24.0332,-22.18554 9.24414,8.62695 C 440.16573,288.23991 353.41028,140.73742 242.44141,142.05859 Z M 112.64054,335.08676 c -1.77444,6.53779 0.4093,8.76045 4.5743,12.2023 -10.44409,6.15741 -14.88658,27.24712 -18.300778,38.34571 -3.414195,11.09859 0.875587,14.59074 8.714848,13.28906 7.83926,-1.30168 12.41797,-1.74219 12.41797,-1.74219 4.00293,12.61192 -9.64192,21.60116 -1.16493,23.96199 -6.54746,2.86215 4.67323,5.70661 3.2161,11.63697 l 14.07236,4.6759 22.78679,-84.09367 -4.26814,-1.49924 c -7.01178,7.05275 -13.89295,8.33572 -22.11381,5.99234 l -0.76315,-14.92398 z" /></g></svg>
