<?xml version="1.0" encoding="UTF-8" standalone="no"?>
<svg
   viewBox="0 0 493.49609 386.82138"
   version="1.1"
   id="svg1"
   xml:space="preserve"
   width="493.49609"
   height="386.82138"
   xmlns="http://www.w3.org/2000/svg"
   xmlns:svg="http://www.w3.org/2000/svg"><defs
     id="defs1" /><!--! Font Awesome Free 6.7.2 by @fontawesome - https://fontawesome.com License - https://fontawesome.com/license/free (Icons: CC BY 4.0, Fonts: SIL OFL 1.1, Code: MIT License) Copyright 2024 Fonticons, Inc. --><g
     id="layer15"
     style="display:inline"
     transform="translate(-9.765625,-60.368071)"><path
       id="path50"
       style="fill:#000000;stroke:none;stroke-width:1px;stroke-linecap:butt;stroke-linejoin:miter;stroke-opacity:1"
       d="M 221.38867,60.408203 C 145.64951,61.7366 68.596752,96.106871 9.765625,173.04688 l 97.656255,66.99218 C 240.30476,81.480708 406.2482,218.91482 412.11133,314.33203 h 91.15039 C 487.24315,160.67092 356.40196,58.040191 221.38867,60.408203 Z m 20.21875,119.025387 v 52.9668 c 43.44917,2.61016 73.88057,25.42123 96.47852,60.38672 16.9973,-22.50078 29.57047,-17.58229 43.08789,-18.50781 -34.36018,-69.40588 -84.99336,-88.24417 -139.56641,-94.84571 z m -11.33984,52.47461 c -31.44922,1.65786 -61.13505,13.22694 -86.91211,46.79102 l 86.91211,55.60351 z m 11.33984,12.66016 v 60.60352 c 65.81733,-14.27415 89.91528,37.78809 89.84961,67.16406 15.37089,-82.19424 -39.68382,-125.69948 -89.84961,-127.76758 z m -94.9375,45.45508 -49.718748,76.51172 9.390628,-0.27539 30.10742,-47.23243 19.88672,0.55274 10.77344,-15.7461 z m 119.95899,24.63476 c -7.67077,-0.0137 -16.03969,1.45609 -25.02149,4.67969 v 26.89649 l -35.14453,53.1875 -1.23633,1.91601 h 109.65625 c 21.06302,-29.36294 -0.0539,-86.59351 -48.2539,-86.67969 z M 141.42188,327.03711 62.423828,447.18945 227.32422,344.4375 204.39844,327.03711 Z m 77.74609,32.58789 -106.67969,66.84961 h 62.50781 z" /></g></svg>
