<?xml version="1.0" encoding="UTF-8" standalone="no"?>
<svg
   viewBox="0 0 512 477.95959"
   version="1.1"
   id="svg1"
   xml:space="preserve"
   width="512"
   height="477.95959"
   xmlns="http://www.w3.org/2000/svg"
   xmlns:svg="http://www.w3.org/2000/svg"><defs
     id="defs1" /><!--! Font Awesome Free 6.7.2 by @fontawesome - https://fontawesome.com License - https://fontawesome.com/license/free (Icons: CC BY 4.0, Fonts: SIL OFL 1.1, Code: MIT License) Copyright 2024 Fonticons, Inc. --><g
     id="layer20"
     style="display:inline"
     transform="translate(0,-34.59314)"><path
       id="rect32"
       style="display:inline;opacity:1;fill:#000000;stroke:none;stroke-width:13.3626;stroke-linecap:round;stroke-linejoin:round"
       d="m 136.76758,34.59375 c -7.71978,0.02536 -15.50869,0.842482 -22.98242,2.589844 -19.929978,4.659631 -37.399877,15.382813 -47.939457,35.203125 -8.405831,15.807696 -12.531571,38.088421 -8.363281,68.755861 3.91655,-5.95721 8.144424,-11.81948 12.527344,-17.49414 4.14875,-5.3715 8.383608,-10.51664 12.636718,-15.35352 2.38555,-15.111121 10.099694,-29.035612 22.630856,-38.035154 8.40188,-6.033993 18.88611,-9.607608 30.67578,-9.962891 6.21736,-0.187361 12.79789,0.522583 19.62696,2.236328 13.94619,-4.057827 27.70299,-6.745947 40.52148,-8.664062 -5.02437,-4.930153 -12.90785,-9.927596 -23.10351,-13.458985 -10.69132,-3.703062 -23.36418,-5.858666 -36.23047,-5.816406 z m 238.46484,0 c -12.86629,-0.04226 -25.53915,2.113344 -36.23047,5.816406 -10.19566,3.531389 -18.07914,8.528832 -23.10351,13.458985 12.81849,1.918115 26.57529,4.606235 40.52148,8.664062 6.82907,-1.713745 13.4096,-2.423689 19.62696,-2.236328 11.78967,0.355283 22.2739,3.928898 30.67578,9.962891 12.53117,8.999542 20.24531,22.924033 22.63086,38.035154 4.25311,4.83688 8.48796,9.98202 12.63671,15.35352 4.38292,5.67466 8.6108,11.53693 12.52735,17.49414 4.16829,-30.66744 0.0426,-52.948165 -8.36328,-68.755861 C 435.61472,52.566407 418.14481,41.843225 398.21484,37.183594 390.74111,35.436232 382.9522,34.61911 375.23242,34.59375 Z M 256,68.597656 c 0,0 -73.57805,-1.775099 -126.83789,24.080078 -8.70073,4.223798 -28.31673,21.960576 -44.197266,42.521486 -15.88053,20.5609 -28.760157,44.77332 -30.154297,59.64844 L 39.0625,362.88281 9.4492188,390.75781 v 80.25781 L 127.44727,421.1582 c -3.60811,-7.43392 -8.59093,-18.03404 -14.64454,-32.71289 -9.74202,-23.62256 -20.067989,-52.40458 -21.751949,-76.05469 -2.71797,-38.17214 2.843217,-64.27565 9.460939,-81.05078 3.14165,-7.96371 6.68701,-13.85271 9.58594,-17.99414 -0.26593,-0.5417 -0.57285,-0.96722 -0.82227,-1.56054 -2.87881,-6.84832 -4.98823,-17.46778 -5.35547,-36.99805 -0.40903,-21.75271 8.86241,-38.5503 21.93164,-47.40625 1.45565,-17.85006 14.65201,-29.812457 28.56641,-29.955079 12.20196,-0.125068 23.98025,8.918149 27.69141,22.999999 h 6.47656 c 2.34358,-5.54288 5.79413,-10.22822 9.71875,-13.82226 7.23124,-6.622175 15.66268,-10.193364 24.04687,-10.193364 H 256 289.64844 c 8.38419,0 16.81563,3.571189 24.04687,10.193364 3.92462,3.59404 7.37517,8.27938 9.71875,13.82226 h 6.47656 c 3.71115,-14.08185 15.48945,-23.125067 27.69141,-22.999999 13.9144,0.142622 27.11076,12.105019 28.56641,29.955079 13.06923,8.85595 22.34067,25.65354 21.93164,47.40625 -0.36724,19.53027 -2.47666,30.14973 -5.35547,36.99805 -0.24942,0.59332 -0.55634,1.01884 -0.82227,1.56054 2.89893,4.14143 6.44429,10.03043 9.58594,17.99414 6.61772,16.77513 12.17891,42.87864 9.46094,81.05078 -1.68396,23.6501 -12.00993,52.43213 -21.75195,76.05469 -6.05361,14.67885 -11.03643,25.27897 -14.64454,32.71289 l 117.99805,49.85742 V 390.75781 L 472.9375,362.88281 457.18945,194.84766 C 455.79531,179.97254 442.91569,155.76012 427.03516,135.19922 411.15462,114.63831 391.53862,96.901532 382.83789,92.677734 329.57805,66.822557 256,68.597656 256,68.597656 Z m -33.64844,46.710934 c -2.08106,0 -7.39155,1.66483 -11.28515,5.23047 -3.89361,3.56565 -6.74805,8.40164 -6.74805,15.59961 0,5.38677 1.98227,6.17661 5.49023,6.73633 3.50797,0.55972 7.5453,-0.84209 9.4375,-4.4707 2.4127,-4.62792 8.12055,-6.42326 12.74805,-4.00977 4.62792,2.4127 6.42326,8.12055 4.00977,12.74805 -5.91398,11.34103 -18.25546,16.13664 -29.17383,14.39453 -10.04903,-1.6034 -19.72999,-10.21409 -21.20899,-22.21289 h -37.82421 c -11.84686,0 -25.4526,10.10313 -24.98243,35.10742 0.19894,10.57964 1.04808,17.67025 1.97266,22.60547 16.97442,-14.08287 29.43973,-16.93359 36.89258,-16.93359 16.35296,0 27.19048,6.18651 38.99609,9.04296 11.80562,2.85646 28.93313,2.5863 55.32422,-6.50781 26.39109,9.09411 43.5186,9.36427 55.32422,6.50781 11.80561,-2.85645 22.64313,-9.04296 38.99609,-9.04296 7.45285,0 19.91816,2.85072 36.89258,16.93359 0.92458,-4.93522 1.77372,-12.02583 1.97266,-22.60547 0.47017,-25.00429 -13.13559,-35.10742 -24.98243,-35.10742 h -37.82421 c -1.479,11.9988 -11.15996,20.60949 -21.20899,22.21289 -10.91837,1.74211 -23.25985,-3.0535 -29.17383,-14.39453 -2.41349,-4.6275 -0.61815,-10.33535 4.00977,-12.74805 4.6275,-2.41349 10.33535,-0.61815 12.74805,4.00977 1.8922,3.62861 5.92953,5.03042 9.4375,4.4707 3.50796,-0.55972 5.49023,-1.34956 5.49023,-6.73633 0,-7.19797 -2.85444,-12.03396 -6.74805,-15.59961 -3.8936,-3.56564 -9.20409,-5.23047 -11.28515,-5.23047 H 256 Z m -60.67187,83.69336 c -41.24413,0 -40.49677,63.86654 -26.96289,92.21094 5.06873,10.6156 10.39076,13.75971 11.92187,13.86719 0.76556,0.0537 1.58035,0.0146 3.52735,-1.67578 1.94699,-1.69041 4.5894,-5.14335 7.12109,-10.58594 9.17758,-17.69619 14.79022,-39.7771 30.33984,-53.64063 5.01698,-4.27533 12.03199,-7.35709 19.43946,-6.31445 33.17932,4.84677 64.6844,7.20011 97.86718,0 7.40747,-1.04264 14.42248,2.03912 19.43946,6.31445 15.54962,13.86353 21.16226,35.94444 30.33984,53.64063 2.53169,5.44259 5.1741,8.89553 7.12109,10.58594 1.947,1.69038 2.76179,1.72948 3.52735,1.67578 1.53111,-0.10748 6.85314,-3.25159 11.92187,-13.86719 13.53388,-28.3444 14.28124,-92.21094 -26.96289,-92.21094 -11.26172,0 -19.92851,4.97328 -34.55273,8.51172 -14.62422,3.53844 -30.85026,5.02518 -59.76758,-4.93945 -28.91732,9.96463 -45.14336,8.47789 -59.76758,4.93945 -14.62422,-3.53844 -23.29101,-8.51172 -34.55273,-8.51172 z m 42.5625,52.56446 c -1.84094,-0.2073 -6.54461,3.39183 -11.54883,11.12695 -0.36299,0.58287 -0.72606,1.12762 -1.08789,1.74609 -5.83739,9.97774 -11.46418,24.05407 -17.18359,36.34961 -3.2982,7.09036 -7.08689,12.73444 -11.86719,16.88477 -4.78031,4.15032 -10.98754,6.69658 -17.23828,6.25781 -26.64126,-1.87008 -33.02499,-17.20304 -33.52149,-20.04883 -1.41444,8.41449 1.64545,24.95373 9.11133,36.48828 5.30929,8.20269 15.12579,13.14773 34.02539,13.46289 11.19024,0.18661 26.53976,-4.74893 43.80078,-10.31054 17.26104,-5.5616 36.58279,-11.42774 57.26758,-11.42774 20.68479,0 40.00654,5.86614 57.26758,11.42774 17.26102,5.56161 32.61054,10.49715 43.80078,10.31054 18.8996,-0.31516 28.7161,-5.2602 34.02539,-13.46289 7.46588,-11.53455 10.52577,-28.07379 9.11133,-36.48828 -0.4965,2.84579 -6.88023,18.17875 -33.52149,20.04883 -6.25074,0.43877 -12.45797,-2.10749 -17.23828,-6.25781 -4.7803,-4.15033 -8.569,-9.79441 -11.86719,-16.88477 -5.7194,-12.29554 -11.3462,-26.37187 -17.18359,-36.34961 -0.36183,-0.61847 -0.7249,-1.16322 -1.08789,-1.74609 -5.00422,-7.73512 -9.70789,-11.33425 -11.54883,-11.12695 -10.36076,12.37412 -2.38058,48.3261 -8.74804,54.96093 -2.49701,2.60186 -9.82079,3.50277 -14.00586,2.73438 -9.13976,-1.67811 -48.86323,-1.67899 -58.00782,0 -4.18507,0.76839 -11.50885,-0.13252 -14.00586,-2.73438 -6.36753,-6.63491 1.61279,-42.58673 -8.74804,-54.96093 z M 256,351.13086 c -16.94594,0 -34.43079,4.88791 -51.47266,10.37891 -17.04186,5.49099 -33.49149,11.49257 -49.91211,11.21875 -11.88078,-0.19813 -21.89129,-2.52016 -30.12304,-6.36329 1.89366,5.07836 3.8256,10.13767 5.77929,14.875 6.45194,15.64473 11.55433,26.32965 14.86524,33.07813 44.08693,17.435 72.30693,16.4668 110.86328,16.4668 38.55635,0 66.77635,0.9682 110.86328,-16.4668 3.31091,-6.74848 8.4133,-17.4334 14.86524,-33.07813 1.95369,-4.73733 3.88563,-9.79664 5.77929,-14.875 -8.23175,3.84313 -18.24226,6.16516 -30.12304,6.36329 -16.42062,0.27382 -32.87025,-5.72776 -49.91211,-11.21875 C 290.43079,356.01877 272.94594,351.13086 256,351.13086 Z M 0,512 v 0.55273 H 512 V 512 H 256 Z" /></g></svg>
