<?xml version="1.0" encoding="UTF-8" standalone="no"?>
<svg
   viewBox="0 0 443.16699 417.64206"
   version="1.1"
   id="svg1"
   xml:space="preserve"
   width="443.16699"
   height="417.64206"
   xmlns="http://www.w3.org/2000/svg"
   xmlns:svg="http://www.w3.org/2000/svg"><defs
     id="defs1" /><!--! Font Awesome Free 6.7.2 by @fontawesome - https://fontawesome.com License - https://fontawesome.com/license/free (Icons: CC BY 4.0, Fonts: SIL OFL 1.1, Code: MIT License) Copyright 2024 Fonticons, Inc. --><g
     id="layer8"
     style="display:inline"
     transform="translate(-34.416507,-42.814971)"><path
       id="path100"
       style="display:inline;fill:#000000;stroke:none;stroke-width:0.86696"
       d="m 134.92188,42.816406 c -1.2688,0.0075 -2.56172,0.04458 -3.87891,0.113282 -16.27932,0.849035 -35.973454,6.499332 -59.720704,19.449218 -28.12839,15.339135 -37.304499,35.277987 -36.892578,54.427734 0.402409,18.70784 9.839385,35.76479 17.291015,46.52539 l 5.832031,7.88086 18.052735,-19.57617 0.18164,-0.17188 c 0.8589,-0.82137 2.587895,-2.46906 4.865235,-4.60742 l 3.341797,-3.13672 -2.63086,-3.75586 c -3.80784,-5.43316 -9.06404,-14.86861 -9.71875,-24.2832 -0.32735,-4.7073 0.387456,-9.37203 2.853516,-14.01172 2.46607,-4.639691 6.757874,-9.364566 14.115234,-13.820311 10.67794,-6.466946 19.553539,-9.682903 26.798829,-10.816406 7.24528,-1.133503 12.85888,-0.248647 17.46875,1.638672 9.21974,3.774639 14.78593,12.1177 17.69726,18.337891 l 2.16797,4.632814 4.70118,-2.007814 c 6.98114,-2.980048 18.60462,-7.307336 33.97461,-10.81836 l 6.20898,-1.417968 -2.53125,-5.845704 C 190.6073,71.188312 175.28464,44.380236 138.65625,42.880859 c -1.22095,-0.04998 -2.4656,-0.07195 -3.73437,-0.06445 z m 242.15624,0 c -1.26877,-0.0075 -2.51342,0.01447 -3.73437,0.06445 -36.62839,1.499377 -51.95105,28.307453 -56.44336,38.671875 l -2.53125,5.845704 6.20898,1.417968 c 15.36999,3.511024 26.99347,7.838312 33.97461,10.81836 l 4.70118,2.007817 2.16797,-4.632817 c 2.91133,-6.220191 8.47752,-14.563252 17.69726,-18.337891 4.60987,-1.887319 10.22347,-2.772175 17.46875,-1.638672 7.24529,1.133503 16.12089,4.34946 26.79883,10.816406 7.35736,4.455745 11.64916,9.18062 14.11523,13.820314 2.46606,4.63969 3.18087,9.30442 2.85352,14.01172 -0.65471,9.41459 -5.91091,18.85004 -9.71875,24.2832 l -2.63086,3.75586 3.3418,3.13672 c 2.27734,2.13836 4.00633,3.78605 4.86523,4.60742 l 0.18164,0.17188 18.05274,19.57617 5.83203,-7.88086 c 7.45163,-10.7606 16.8886,-27.81755 17.29101,-46.52539 0.41192,-19.14975 -8.76419,-39.088602 -36.89258,-54.427737 -23.74725,-12.949886 -43.44138,-18.600183 -59.7207,-19.449218 -1.31719,-0.0687 -2.61012,-0.105754 -3.87891,-0.113282 z M 255.96289,106.2168 v 0.002 c -34.58398,0.0199 -57.82814,9.04625 -60.67578,10.78711 13.82153,4.33827 21.9856,17.41572 23.10742,37.45117 6.34378,-3.80494 19.64702,-5.67349 37.60547,-5.68359 17.95845,0.0101 31.26169,1.87865 37.60547,5.68359 1.12182,-20.03545 9.28589,-33.1129 23.10742,-37.45117 -2.84764,-1.74086 -26.0918,-10.76717 -60.67578,-10.78711 v -0.002 H 256 Z M 145.70312,124 c -36.54063,0 -39.09184,23.70149 -39.08984,36.14844 0,28.60449 24.46094,27.27734 24.46094,27.27734 l 5.0039,-12.0039 c -6.53081,-4.14147 -12.22235,-10.8386 -11.22265,-17.77344 1.26443,-8.77127 11.11047,-17.18856 19.96484,-17.55469 8.15363,-0.33715 18.68419,6.48954 19.65821,14.5918 1.40023,11.6476 -5.83135,17.10235 -22.48243,27.07812 3.61175,2.28964 10.63537,3.9961 15.22852,3.9961 17.48486,0 23.99805,-11.98268 23.99805,-28.16016 C 181.22266,147.48479 179.22849,124 145.70312,124 Z m 220.59376,0 c -33.52536,0 -35.51954,23.48479 -35.51954,33.59961 0,16.17748 6.51319,28.16016 23.99805,28.16016 4.59315,0 11.61677,-1.70646 15.22852,-3.9961 -16.65108,-9.97577 -23.88266,-15.43052 -22.48243,-27.07812 0.97402,-8.10226 11.50458,-14.92895 19.65821,-14.5918 8.85437,0.36613 18.70041,8.78342 19.96484,17.55469 0.9997,6.93484 -4.69186,13.63197 -11.22265,17.77344 l 5.0039,12.0039 c 0,0 24.46094,1.32715 24.46094,-27.27734 C 405.38872,147.70149 402.83751,124 366.29688,124 Z M 78.816406,176.88281 c -2.67628,1.99429 -34.304942,37.0026 -34.951172,59.82617 -0.34937,12.33889 0.321359,167.02978 1.017578,179.21875 0.825281,14.44845 20.142579,44.5293 20.142579,44.5293 l 36.648439,-26.30469 c 0,0 -17.427255,-25.30891 -17.376955,-34.02734 0.06628,-11.48896 1.20108,-140.21012 1.03125,-150.82031 C 85.121155,236.37434 103.487,213.95993 106.71875,210.26172 88.05299,200.0878 81.229056,191.32746 78.816406,176.88281 Z m 354.367184,0 c -2.41265,14.44465 -9.23658,23.20499 -27.90234,33.37891 3.23175,3.69821 21.5976,26.11262 21.39063,39.04297 -0.16983,10.61019 0.96497,139.33135 1.03124,150.82031 0.0503,8.71843 -17.37695,34.02734 -17.37695,34.02734 l 36.64844,26.30469 c 0,0 19.3173,-30.08085 20.14258,-44.5293 0.69622,-12.18897 1.36695,-166.87986 1.01758,-179.21875 -0.64623,-22.82357 -32.2749,-57.83188 -34.95118,-59.82617 z m -177.23242,0.91992 v 0.002 c -25.27623,0.0208 -43.39021,7.57853 -49.75976,10.67969 v 31.43554 c 0,0 -24.73323,-10.74609 -52.16993,-10.74609 -18.38377,0 -30.65951,12.86657 -32.37304,36.22851 -10.72784,2.20472 -12.73828,16.9328 -12.73828,23.76563 0,25.43402 0.34967,79.75281 3.62695,106.03125 2.80373,22.47334 21.76904,66.62695 55.71875,66.62695 H 256 343.74414 c 33.94971,0 52.91502,-44.15361 55.71875,-66.62695 3.27728,-26.27844 3.62695,-80.59723 3.62695,-106.03125 0,-6.83283 -2.01044,-21.56091 -12.73828,-23.76563 -1.71353,-23.36194 -13.98927,-36.22851 -32.37304,-36.22851 -27.4367,0 -52.16993,10.74609 -52.16993,10.74609 v -31.43554 c -6.36955,-3.10114 -24.48353,-10.65888 -49.75976,-10.67969 v -0.002 H 256 Z m -103.2207,82.56641 c 16.55362,0.60881 44.47526,13.06641 60.76758,13.06641 23.4846,0 13.76907,-2.36936 42.50195,-2.36936 28.73289,0 19.01736,2.36936 42.50196,2.36936 23.69792,0 72.00147,-26.35572 74.13477,-4.26953 2.1333,22.08619 12.78713,124.97743 -20.53711,125.75 -11.908,0 -27.52474,3.33593 -96.09961,3.33593 -68.57487,0 -84.19161,-3.33593 -96.09961,-3.33593 -33.32424,-0.77257 -22.67041,-103.66381 -20.53711,-125.75 0.66666,-6.90194 5.84281,-9.07361 13.36719,-8.79688 z m 20.38867,18.66602 c -6.96169,0 -15.75015,6.22181 -18.10742,12.77343 -5.69333,15.82202 8.07806,68.61133 19.54101,68.61133 6.01758,0 15.74502,-37.85642 24.3418,-58.20312 3.28578,-7.77403 -8.294,-23.18164 -25.77539,-23.18164 z m 165.76172,0 c -17.48139,0 -29.06117,15.40761 -25.77539,23.18164 8.59678,20.3467 18.32422,58.20312 24.3418,58.20312 11.46295,0 25.23434,-52.78931 19.54101,-68.61133 -2.35727,-6.55162 -11.14573,-12.77343 -18.10742,-12.77343 z m -120.17578,61.4375 c -6.56997,-0.0251 -30.73125,43.60434 -17.31641,44.00976 6.39408,0.19272 27.60802,0.25822 34.90625,-0.01 8.7378,-0.32027 -11.07932,-43.9751 -17.58984,-44 z m 74.58984,0 c -6.51052,0.0249 -26.32764,43.67973 -17.58984,44 7.29823,0.2675 28.51217,0.202 34.90625,0.01 13.41484,-0.40542 -10.74644,-44.03486 -17.31641,-44.00976 z" /></g></svg>
