<?xml version="1.0" encoding="UTF-8" standalone="no"?>
<svg
   viewBox="0 0 399.14062 399.14062"
   version="1.1"
   id="svg1"
   xml:space="preserve"
   width="399.14062"
   height="399.14062"
   xmlns="http://www.w3.org/2000/svg"
   xmlns:svg="http://www.w3.org/2000/svg"><defs
     id="defs1" /><!--! Font Awesome Free 6.7.2 by @fontawesome - https://fontawesome.com License - https://fontawesome.com/license/free (Icons: CC BY 4.0, Fonts: SIL OFL 1.1, Code: MIT License) Copyright 2024 Fonticons, Inc. --><g
     id="g4"
     style="display:inline"
     transform="translate(-56.429688,-56.429688)"><path
       id="path4"
       style="display:inline;opacity:1;fill:#000000;stroke:none;stroke-width:9.44882;stroke-linecap:round;stroke-linejoin:round"
       d="m 113.51172,83.429688 v 3.082032 a 27,27 135 0 1 -27,27 h -3.082032 a 27,27 135 0 0 -27,27 v 230.97656 a 27,27 45 0 0 27,27 h 3.082032 a 27,27 45 0 1 27,27 v 3.08203 a 27,27 45 0 0 27,27 h 230.97656 a 27,27 135 0 0 27,-27 v -3.08203 a 27,27 135 0 1 27,-27 h 3.08203 a 27,27 135 0 0 27,-27 v -3.09375 a 27,27 45 0 0 -27,-27 H 198.31445 a 27,27 45 0 1 -27,-27 v -3.31055 a 27,27 135 0 1 27,-27 h 230.25586 a 27,27 135 0 0 27,-27 V 140.51172 a 27,27 45 0 0 -27,-27 h -3.08203 a 27,27 45 0 1 -27,-27 v -3.082032 a 27,27 45 0 0 -27,-27 H 140.51172 a 27,27 135 0 0 -27,27 z M 200.16211,167 h 118.54687 a 27,27 45 0 1 27,27 v 10.08789 a 27,27 135 0 1 -27,27 H 200.16211 a 27,27 45 0 1 -27,-27 V 194 a 27,27 135 0 1 27,-27 z" /></g></svg>
