<?xml version="1.0" encoding="UTF-8" standalone="no"?>
<svg
   viewBox="0 0 467.11914 145.53908"
   version="1.1"
   id="svg1"
   xml:space="preserve"
   width="467.11914"
   height="145.53908"
   xmlns="http://www.w3.org/2000/svg"
   xmlns:svg="http://www.w3.org/2000/svg"><defs
     id="defs1" /><!--! Font Awesome Free 6.7.2 by @fontawesome - https://fontawesome.com License - https://fontawesome.com/license/free (Icons: CC BY 4.0, Fonts: SIL OFL 1.1, Code: MIT License) Copyright 2024 Fonticons, Inc. --><g
     id="layer6"
     style="display:inline"
     transform="translate(-22.658203,-183.23046)"><path
       id="rect24"
       style="display:inline;opacity:1;fill:#000000;stroke:none;stroke-width:9.44882;stroke-linecap:round;stroke-linejoin:round"
       d="m 54.658203,183.23046 c -17.673112,0 -32,14.32689 -32,32 v 81.53908 c 0,17.6731 14.326888,32 32,32 h 81.539067 c 17.67311,0 32,-14.3269 32,-32 v -0.16211 a 10,10 0 0 0 -10,-10 H 72.240234 a 10,10 0 0 1 -10,-10 v -1.56836 a 10,10 0 0 1 10,-10 h 85.957036 a 10,10 0 0 0 10,-10 v -39.80861 c 0,-17.67311 -14.32689,-32 -32,-32 z m 140.791017,0 c -6.62742,0 -12,5.37258 -12,12 v 53.88087 c 0,7.73184 2.82796,15.19739 7.95117,20.98827 l 43.95508,49.68165 c 5.05622,5.71516 12.32042,8.98829 19.95117,8.98829 h 1.38672 c 7.63075,0 14.89495,-3.27314 19.95117,-8.98829 l 44.39063,-50.17382 c 5.12322,-5.79088 7.95117,-13.25644 7.95117,-20.98829 v -53.38868 c 0,-6.62742 -5.37258,-12 -12,-12 h -4.13477 c -7.39946,0 -14.0056,4.15247 -17.76562,10.5254 l -33.32032,56.47656 c -2.63835,4.47179 -8.8929,4.47179 -11.53124,0 l -33.32032,-56.47656 c -3.76002,-6.37293 -10.36616,-10.5254 -17.76562,-10.5254 z m 180.78906,0 c -17.67311,0 -32,14.32689 -32,32 v 81.53908 c 0,17.6731 14.32689,32 32,32 h 81.53906 c 17.67312,0 32,-14.3269 32,-32 v -81.53908 c 0,-17.67311 -14.32688,-32 -32,-32 z m 19.61328,39.87111 h 44.92578 a 10,10 0 0 1 10,10 v 43.83593 a 10,10 0 0 1 -10,10 h -44.92578 a 10,10 0 0 1 -10,-10 v -43.83593 a 10,10 0 0 1 10,-10 z M 72.240234,223.44336 H 115.4043 a 10,10 0 0 1 10,10 v 0.95118 a 10,10 0 0 1 -10,10 H 72.240234 a 10,10 0 0 1 -10,-10 v -0.95118 a 10,10 0 0 1 10,-10 z" /></g></svg>
