<?xml version="1.0" encoding="UTF-8" standalone="no"?>
<svg
   viewBox="0 0 466.86133 438.34402"
   version="1.1"
   id="svg1"
   xml:space="preserve"
   width="466.86133"
   height="438.34402"
   xmlns="http://www.w3.org/2000/svg"
   xmlns:svg="http://www.w3.org/2000/svg"><defs
     id="defs1" /><!--! Font Awesome Free 6.7.2 by @fontawesome - https://fontawesome.com License - https://fontawesome.com/license/free (Icons: CC BY 4.0, Fonts: SIL OFL 1.1, Code: MIT License) Copyright 2024 Fonticons, Inc. --><g
     id="layer13"
     style="display:inline"
     transform="translate(-22.033203,-40.23619)"><path
       id="rect43-3"
       style="opacity:1;fill:#000000;stroke:none;stroke-width:10.3998;stroke-linecap:round;stroke-linejoin:round"
       d="m 173.3457,40.236328 a 17.320509,17.320509 0 0 0 -8.66015,2.320313 l -47.27344,27.292968 a 17.320504,17.320504 0 0 0 -8.66016,15 v 45.355471 l -26.716794,46.27539 5.597656,-3.23242 a 17.320509,17.320509 0 0 1 17.322268,0 l 47.27344,27.29492 a 17.320508,17.320508 45 0 1 8.66015,15 v 11.85742 l 28.99414,-50.21875 31.46094,-18.16406 h 72.75391 l 39.33789,22.71094 a 17.320506,17.320506 0 0 0 17.32031,0 l 47.27344,-27.29297 a 17.320509,17.320509 0 0 0 8.66015,-15 V 84.849609 a 17.320508,17.320508 0 0 0 -8.66015,-15 L 350.75586,42.556641 a 17.320509,17.320509 0 0 0 -17.32031,0 L 294.09766,65.267578 H 221.34375 L 182.00586,42.556641 A 17.320509,17.320509 0 0 0 173.3457,40.236328 Z M 417.46484,151.45898 v 10.70118 a 17.320509,17.320509 45 0 1 -8.66015,15 l -47.27344,27.29296 a 17.320506,17.320506 0 0 1 -17.32031,0 l -6.60352,-3.8125 8.46094,14.6543 H 189.01562 l -20.46874,35.45313 c -3.09403,5.35898 -3.09401,11.96133 0,17.32031 l 20.46874,35.45312 h 182.50391 l 44.12109,25.47266 a 17.320506,17.320506 0 0 0 17.32032,0 l 47.27344,-27.29297 a 17.320509,17.320509 0 0 0 8.66015,-15 v -54.58594 a 17.320508,17.320508 0 0 0 -8.66015,-15 L 442.93945,195.58398 Z M 86.626953,187.50195 a 17.320509,17.320509 0 0 0 -8.660156,2.32032 l -47.273438,27.29296 a 17.320504,17.320504 0 0 0 -8.660156,15 v 54.58594 a 17.320512,17.320512 0 0 0 8.660156,15 l 41.302735,23.84571 36.755856,63.66406 v 44.75586 a 17.320512,17.320512 0 0 0 8.66016,15 l 47.27344,27.29297 a 17.320506,17.320506 0 0 0 17.32031,0 l 39.33789,-22.71094 h 72.75391 l 39.33789,22.71094 a 17.320506,17.320506 0 0 0 17.32031,0 L 398.0293,448.9668 a 17.320509,17.320509 0 0 0 8.66015,-15 v -54.58594 a 17.320508,17.320508 0 0 0 -8.66015,-15 l -47.27344,-27.29297 a 17.320509,17.320509 0 0 0 -17.32031,0 l -39.33789,22.71094 H 221.34375 L 189.36523,341.33594 151.2207,275.26953 v -43.1543 a 17.320508,17.320508 0 0 0 -8.66015,-15 L 95.287109,189.82227 a 17.320509,17.320509 0 0 0 -8.660156,-2.32032 z" /></g></svg>
