<?xml version="1.0" encoding="UTF-8" standalone="no"?>
<svg
   viewBox="0 0 480.61328 502.35938"
   version="1.1"
   id="svg1"
   xml:space="preserve"
   width="480.61328"
   height="502.35938"
   xmlns="http://www.w3.org/2000/svg"
   xmlns:svg="http://www.w3.org/2000/svg"><defs
     id="defs1" /><!--! Font Awesome Free 6.7.2 by @fontawesome - https://fontawesome.com License - https://fontawesome.com/license/free (Icons: CC BY 4.0, Fonts: SIL OFL 1.1, Code: MIT License) Copyright 2024 Fonticons, Inc. --><g
     id="layer12"
     style="display:inline"
     transform="translate(-12.705078,-7.1816406)"><path
       id="path25"
       style="fill:#000000;stroke:none;stroke-width:1px;stroke-linecap:butt;stroke-linejoin:miter;stroke-opacity:1"
       d="M 267.375,7.1816406 287.40039,280.77148 320.4082,208.26562 Z M 256.83203,44.347656 213.67188,196.48438 60.927734,184.02539 111.44922,202.94531 224.55469,212.17188 259.97656,87.310547 Z M 12.705078,180.0918 174.56641,307.70117 285.60547,282.29102 Z m 322.269532,28.19531 -6.75195,14.74219 85.86914,0.13476 40.55078,-14.68554 z m 158.34375,0.25391 -204.39844,74.02539 58.00391,29.00195 z M 287.08594,283.27344 92.763672,509.54102 258.25977,378.13672 399.68359,503.73242 Z M 186.04688,318.64453 168.46094,322.71094 108.3457,471.09375 138.48438,436 Z m 147.85351,1.20117 15.43945,56.23438 33.07618,64.75976 -30.74414,-112.10156 z" /></g></svg>
