<?xml version="1.0" encoding="UTF-8" standalone="no"?>
<svg
   viewBox="0 0 478.12891 240.44336"
   version="1.1"
   id="svg1"
   xml:space="preserve"
   width="478.12891"
   height="240.44336"
   xmlns="http://www.w3.org/2000/svg"
   xmlns:svg="http://www.w3.org/2000/svg"><defs
     id="defs1" /><!--! Font Awesome Free 6.7.2 by @fontawesome - https://fontawesome.com License - https://fontawesome.com/license/free (Icons: CC BY 4.0, Fonts: SIL OFL 1.1, Code: MIT License) Copyright 2024 Fonticons, Inc. --><g
     id="layer18"
     style="display:inline"
     transform="translate(-16.845703,-88.527344)"><path
       id="path24"
       style="display:inline;opacity:1;fill:#000000;stroke:none;stroke-width:11.5689;stroke-linecap:round;stroke-linejoin:round"
       d="M 256,88.527344 C 255.94854,89.71048 238.27991,215.0622 237.91016,217.68555 a 139.48228,128.57184 0 0 0 -42.96289,11.99023 l -93.68946,-84.46094 64.5,101.92383 a 139.48228,128.57184 0 0 0 -20.94726,20.83985 L 30.554688,247.07031 126.33984,298.53125 a 139.48228,128.57184 0 0 0 -4.20898,11.75195 L 16.845703,328.9707 H 494.97461 l -104.9375,-18.8789 a 139.48228,128.57184 0 0 0 -4.11523,-11.70118 l 95.52343,-51.32031 -113.88867,20.8418 A 139.48228,128.57184 0 0 0 346.26953,247.0957 l 64.47266,-101.88086 -93.55664,84.3418 a 139.48228,128.57184 0 0 0 -43.10547,-11.94336 z m 0,153.376956 a 97.827339,103.16019 0 0 1 88.46094,59.98828 l -24.63672,-4.43164 -19.53125,8.88672 -43.75,-19.92188 -89.19336,15.83203 A 97.827339,103.16019 0 0 1 256,241.9043 Z" /></g></svg>
