<?xml version="1.0" encoding="UTF-8" standalone="no"?>
<svg
   viewBox="0 0 501.99222 293.89188"
   version="1.1"
   id="svg1"
   xml:space="preserve"
   width="501.99222"
   height="293.89188"
   xmlns="http://www.w3.org/2000/svg"
   xmlns:svg="http://www.w3.org/2000/svg"><defs
     id="defs1" /><!--! Font Awesome Free 6.7.2 by @fontawesome - https://fontawesome.com License - https://fontawesome.com/license/free (Icons: CC BY 4.0, Fonts: SIL OFL 1.1, Code: MIT License) Copyright 2024 Fonticons, Inc. --><g
     id="layer11"
     style="display:inline"
     transform="translate(-5.0038855,-80.722707)"><path
       id="path104"
       style="display:inline;opacity:1;fill:#000000;stroke:none;stroke-width:1.17164px;stroke-linecap:butt;stroke-linejoin:miter;stroke-opacity:1"
       d="m 252.78829,83.525263 c -3.75603,76.929817 -8.4523,154.112057 -24.70201,229.547837 -0.32563,1.51169 -1.84478,2.82916 -3.38624,2.95262 -6.10609,0.48904 -12.05349,1.06751 -17.81091,1.7416 -1.5359,0.17983 -3.65798,-0.55993 -4.74234,-1.66243 -23.62459,-24.01989 -60.10608,-60.47465 -91.98733,-110.71804 -0.82846,-1.30562 -2.59678,-1.77416 -3.95834,-1.04101 l -2.68501,1.44577 c -1.36156,0.73315 -1.79312,2.38565 -0.97382,3.69716 25.95598,41.54952 41.63596,83.0598 47.87468,115.79555 0.2895,1.51905 -0.7089,3.06192 -2.2049,3.45349 -6.88872,1.80308 -13.39318,3.70005 -19.50654,5.65457 -1.47294,0.47091 -3.83305,0.41169 -5.27272,-0.15285 -23.36345,-9.16155 -50.55179,-21.50248 -69.505104,-33.08394 -1.319516,-0.8063 -3.032337,-0.40737 -3.838705,0.91214 l -0.301888,0.494 c -0.806368,1.31951 -0.397956,3.05641 0.870568,3.9406 12.853083,8.9589 28.962741,26.48957 40.154413,39.53666 1.006796,1.17371 0.673099,2.64152 -0.732705,3.28576 -5.020125,2.30059 -9.516946,4.5111 -13.540288,6.58208 -1.374888,0.70771 -3.734954,1.37419 -5.277906,1.47735 -21.180829,1.41617 -42.339084,3.05524 -63.4685834,4.94572 -1.5402435,0.13781 -2.7887261,1.50459 -2.7887261,3.05099 v 1.23191 c 0,1.5464 1.2528866,2.84237 2.7984048,2.8945 81.7878667,2.75908 163.8183397,5.26188 245.3978797,5.09981 1.54631,-0.003 4.05343,-0.003 5.59982,0 81.57955,0.16206 163.61002,-2.34074 245.39788,-5.09981 1.54543,-0.0521 2.79824,-1.3481 2.79824,-2.8945 v -1.23191 c 0,-1.5464 -1.24848,-2.91318 -2.78873,-3.05099 -21.12949,-1.89048 -42.28774,-3.52955 -63.46857,-4.94572 -1.54295,-0.10316 -3.90306,-0.76966 -5.27799,-1.4774 -4.02335,-2.07097 -8.52017,-4.28148 -13.54029,-6.58207 -1.40576,-0.64422 -1.7394,-2.11203 -0.73259,-3.28577 11.19169,-13.04713 27.30136,-30.57777 40.15444,-39.53665 1.26849,-0.88417 1.67688,-2.62105 0.87051,-3.94056 l -0.30189,-0.494 c -0.80637,-1.31951 -2.51921,-1.71843 -3.83874,-0.91212 -18.95333,11.58146 -46.14167,23.92239 -69.50511,33.08393 -1.43965,0.56453 -3.79974,0.62375 -5.27269,0.15283 -6.11337,-1.95451 -12.61782,-3.85148 -19.50654,-5.65456 -1.49599,-0.39157 -2.49439,-1.93444 -2.20489,-3.45349 6.23872,-32.73575 21.9187,-74.24603 47.87468,-115.79555 0.81931,-1.31151 0.38774,-2.96401 -0.97382,-3.69716 l -2.68501,-1.44577 c -1.36156,-0.73315 -3.12992,-0.26453 -3.95845,1.04118 -31.88128,50.2434 -68.3628,86.69815 -91.98736,110.71801 -1.08428,1.10243 -3.20631,1.84212 -4.74221,1.66229 -5.75742,-0.67409 -11.70482,-1.25256 -17.81091,-1.7416 -1.54145,-0.12346 -3.05034,-1.44316 -3.36434,-2.95735 -15.61574,-75.30328 -21.75238,-152.48836 -24.75249,-229.541882 -0.0602,-1.545216 -1.36117,-2.804342 -2.90756,-2.803781 -0.18371,6.7e-5 -0.36741,2.01e-4 -0.55112,3.9e-4 -1.54639,0.0016 -2.86073,1.257608 -2.93615,2.802166 z m 5.95888,241.316507 c 39.23212,0.64541 65.75968,9.20738 96.20986,26.8338 1.33833,0.77471 1.16441,1.3673 -0.38102,1.31245 -29.11152,-1.03329 -58.2666,-1.59686 -87.46013,-1.68411 -1.54639,-0.005 -2.79999,-0.0121 -2.79999,-0.0186 -3.70538,-0.002 -4.61063,0.001 -5.51594,0.004 -1.54637,0.004 -4.05356,0.004 -5.59995,2.7e-4 -0.90531,-0.002 -1.81056,-0.006 -2.71595,-0.007 -1.54636,-0.003 -2.79994,0.008 -2.79994,0.0147 -31.99352,0.0942 -61.1486,0.65774 -90.26012,1.69102 -1.54543,0.0548 -1.71935,-0.53774 -0.38101,-1.31245 30.42244,-17.61034 56.93144,-26.17344 96.1046,-26.83277 1.54618,-0.026 4.05341,-0.0265 5.59959,-10e-4 z" /></g></svg>
