<?xml version="1.0" encoding="UTF-8" standalone="no"?>
<!-- Created with Inkscape (http://www.inkscape.org/) -->

<svg
   width="1800mm"
   height="450mm"
   viewBox="0 0 1800 450"
   version="1.1"
   id="svg1"
   xml:space="preserve"
   inkscape:version="1.4 (86a8ad7, 2024-10-11)"
   sodipodi:docname="Icon-demo-sheet.svg"
   xmlns:inkscape="http://www.inkscape.org/namespaces/inkscape"
   xmlns:sodipodi="http://sodipodi.sourceforge.net/DTD/sodipodi-0.dtd"
   xmlns="http://www.w3.org/2000/svg"
   xmlns:svg="http://www.w3.org/2000/svg"><sodipodi:namedview
     id="namedview1"
     pagecolor="#ffffff"
     bordercolor="#666666"
     borderopacity="1.0"
     inkscape:showpageshadow="2"
     inkscape:pageopacity="0.0"
     inkscape:pagecheckerboard="0"
     inkscape:deskcolor="#d1d1d1"
     inkscape:document-units="mm"
     inkscape:zoom="0.13084403"
     inkscape:cx="2243.1287"
     inkscape:cy="2296.6275"
     inkscape:window-width="2560"
     inkscape:window-height="1377"
     inkscape:window-x="-8"
     inkscape:window-y="-8"
     inkscape:window-maximized="1"
     inkscape:current-layer="layer1" /><defs
     id="defs1" /><g
     inkscape:label="Layer 1"
     inkscape:groupmode="layer"
     id="layer1"
     transform="translate(-37.266665,-82.04203)"
     style="display:inline"><path
       id="path28"
       style="display:inline;fill:#1a1a1a;stroke:none;stroke-width:0.264583px;stroke-linecap:butt;stroke-linejoin:miter;stroke-opacity:1"
       d="m 1048.9169,108.70702 c -0.278,-0.03 -0.5508,0.0906 -0.7157,0.31626 l -25.4951,33.88734 2.0045,9.58391 24.8176,-42.47854 c 0.2283,-0.39073 0.1279,-0.89048 -0.2336,-1.16272 -0.1109,-0.0811 -0.2412,-0.1315 -0.3777,-0.14625 z m -73.33612,0.005 c -0.13861,0.0173 -0.27027,0.0705 -0.38189,0.15451 -0.3541,0.27349 -0.44973,0.76756 -0.22324,1.15342 l 23.70139,41.5339 7.32306,0.87333 0.4765,-3.96668 -30.1615,-39.44101 c -0.17275,-0.22569 -0.4523,-0.34275 -0.73432,-0.30747 z m 37.84992,4.3217 c -0.433,0.006 -0.7797,0.36077 -0.7762,0.79375 l -0.2605,43.00736 c -13.45012,13.53346 -26.93416,27.10039 -40.39647,40.64558 -0.30702,0.309 -0.30026,0.80993 0.015,1.11053 l 0.34365,0.32763 c 0.33184,0.31626 0.84341,0.34705 1.21078,0.0729 l 38.69894,-28.87269 v 0.0222 l 38.6783,28.85095 c 0.3675,0.274 0.879,0.243 1.2107,-0.0734 l 0.3437,-0.32763 c 0.3158,-0.30094 0.3232,-0.80241 0.017,-1.11259 l -40.1117,-40.64038 8.171,-4.96145 -6.2218,-38.05918 c -0.074,-0.45176 -0.4642,-0.78345 -0.9219,-0.78341 z m -66.11125,32.32257 c -0.43379,-0.0764 -0.84852,0.20971 -0.93121,0.64234 l -0.16071,0.84129 c -0.0849,0.44317 0.17844,0.87894 0.6103,1.00976 l 48.84714,14.78721 14.43993,-5.86945 z m 130.01225,0.36019 -62.6717,11.04897 11.3125,6.27917 51.6987,-15.20114 c 0.4359,-0.12795 0.7095,-0.55932 0.6392,-1.00821 l -0.074,-0.4687 c -0.067,-0.43116 -0.4747,-0.72374 -0.9048,-0.65009 z m -87.22468,18.31878 -35.87016,12.31036 c -0.41554,0.14255 -0.63807,0.59383 -0.49816,1.01027 0.14774,0.42266 0.58594,0.67028 1.02422,0.57878 l 40.29832,-7.89875 2.75746,-3.10678 z m 45.27528,0.32608 -6.4792,1.76061 2.7745,3.00499 38.0757,8.78189 c 0.4389,0.10131 0.883,-0.14712 1.0263,-0.57413 0.132,-0.41256 -0.094,-0.85434 -0.5054,-0.98908 z m -23.1645,10.34562 0.3178,29.88086 c 0,0.43966 0.3624,0.79366 0.802,0.79375 0.4474,-0.006 0.8209,-0.34301 0.8718,-0.78755 l 3.3957,-26.64437 z" /><path
       id="path48"
       style="display:inline;fill:#000000;stroke:none;stroke-width:0.264583px;stroke-linecap:butt;stroke-linejoin:miter;stroke-opacity:1"
       d="m 975.7476,257.07099 c -0.10033,-0.003 -0.20139,0.001 -0.30283,0.0124 -0.39847,0.043 -0.77876,0.1904 -1.10226,0.42685 l -0.009,0.006 -0.008,0.006 c -0.97445,0.73395 -1.24171,2.06429 -0.62625,3.11765 l 26.03457,41.44657 2.94197,-14.06375 -25.1432,-30.01729 c -0.42141,-0.57661 -1.08259,-0.91728 -1.7849,-0.93483 z m 73.0384,0 c -0.7023,0.0175 -1.3635,0.35822 -1.7849,0.93483 l -25.1431,30.01729 2.9419,14.06375 26.0346,-41.44657 c 0.6155,-1.05336 0.3482,-2.38369 -0.6263,-3.11765 l -0.01,-0.006 -0.01,-0.006 c -0.3236,-0.23644 -0.7039,-0.38382 -1.1023,-0.42684 -0.1015,-0.0109 -0.2025,-0.0149 -0.3028,-0.0124 z m -35.3585,4.83072 c -0.9863,0.0141 -1.7697,0.81557 -1.7617,1.80196 l -0.2579,42.58396 c -13.35468,13.43744 -26.74218,26.90696 -40.10861,40.35568 -0.70391,0.70843 -0.68818,1.85014 0.0346,2.53938 l 0.34365,0.32763 c 0.68525,0.65308 1.74007,0.71647 2.49855,0.15038 l 38.08601,-28.41533 38.0954,28.41584 c 0.7589,0.56579 1.8137,0.50227 2.4986,-0.15089 l 0.3436,-0.32763 c 0.7228,-0.68887 0.7397,-1.82945 0.038,-2.53886 l -39.2229,-39.74021 7.6662,-4.65502 -6.3304,-38.72477 c -0.1529,-0.93582 -0.9607,-1.6222 -1.9089,-1.62212 h -0.01 z m -66.44766,32.17272 c -1.08311,0.0371 -2.00505,0.83509 -2.17609,1.92804 l -0.0734,0.46716 c -0.188,1.20168 0.53324,2.33895 1.6986,2.68097 l 45.55898,14.6358 16.90907,-7.11068 -61.4526,-12.56977 c -0.15607,-0.0267 -0.31167,-0.0368 -0.46458,-0.0315 z m 130.57396,0 c -0.1529,-0.005 -0.3085,0.005 -0.4646,0.0315 l -61.2655,12.56977 16.722,7.11068 45.559,-14.6358 c 1.1653,-0.34202 1.8866,-1.47929 1.6986,-2.68097 l -0.073,-0.46716 c -0.1711,-1.09295 -1.093,-1.89099 -2.1761,-1.92804 z m -92.01972,21.48654 -31.75413,9.22734 c -1.19622,0.39246 -1.84983,1.67241 -1.46606,2.87166 l 0.004,0.01 0.003,0.0103 c 0.39092,1.16465 1.58886,1.83437 2.78587,1.55805 l 29.45247,-3.5538 5.14025,-8.8098 z m 53.46542,0 -4.1651,1.31361 5.1403,8.8098 29.4525,3.55379 c 1.197,0.27632 2.3949,-0.3934 2.7858,-1.55804 v -0.0103 -0.01 c 0.3838,-1.19926 -0.2698,-2.4792 -1.466,-2.87167 z m -26.789,9.92859 0.1591,29.24679 c 0.013,1.26398 1.0376,2.27763 2.3017,2.2779 h 0.01 l 0.01,-5.3e-4 c 1.2078,-0.0152 2.2028,-0.91276 2.3425,-2.11201 l 3.9388,-23.48436 z" /><path
       id="path22-1"
       style="display:inline;fill:#000000;stroke:none;stroke-width:2.42405;stroke-linecap:round;stroke-linejoin:round"
       d="m 1162.267,97.602127 c -34.4881,1.2e-4 -62.4462,27.958213 -62.4463,62.446313 0,14.17976 4.7333,27.24983 12.6963,37.73258 -1.1618,-48.06617 33.7088,-53.78028 50.845,-47.01366 17.1814,6.78443 25.8506,32.56096 9.2237,46.92374 -9.1401,7.89556 -27.8453,6.9964 -31.9355,-6.68692 -3.5912,-12.01431 10.7759,-22.67796 18.5617,-14.58464 5.4483,5.66353 -0.1561,13.31677 -7.4941,12.39407 4.6671,6.4773 22.2385,-1.5757 11.4137,-16.25637 -7.8756,-10.68105 -31.1372,-1.01183 -29.9754,15.33395 1.4475,20.36575 17.0503,26.8671 34.7023,28.36157 10.6719,0.90352 23.7226,-0.77247 32.4228,-6.67608 14.8511,-11.41583 24.432,-29.34866 24.4321,-49.52824 -10e-5,-34.4881 -27.9582,-62.446193 -62.4463,-62.446313 z" /><path
       id="path101"
       style="display:inline;fill:#000000;stroke:none;stroke-width:0.295159px;stroke-linecap:butt;stroke-linejoin:miter;stroke-opacity:1"
       d="m 1350.6876,124.14222 c -19.9034,-0.21881 -33.8634,4.95275 -47.3444,10.57042 l 2.6158,-7.42746 -17.0041,4.93562 -9.9338,18.36012 14.1532,-10.58954 -1.2015,6.92051 c -22.5629,8.07257 -34.8664,13.22643 -43.0361,18.71669 l -1.988,4.79092 c 18.5936,-10.59012 36.6601,-8.58114 44.2763,-8.60051 l -0.2821,2.20452 c -11.8755,-0.27921 -18.8937,0.18634 -29.9274,3.021 l 11.0644,4.59455 -1.0206,-3.09076 17.1649,0.40514 2.5047,3.5481 c -11.4138,8.42636 -15.8593,12.96269 -18.9011,16.7163 l 0.4206,0.7307 c 14.5222,-6.09029 28.3814,-8.96353 42.3938,-10.02368 l -14.6906,-16.26205 h 2.9415 l 14.5288,16.08274 c 2.0414,-0.1202 4.0876,-0.20624 6.1402,-0.25787 l -16.4078,-18.16323 h 2.9414 l 16.3551,18.10432 c 2.1622,-0.0236 4.3397,0.003 6.5226,0.0408 l -18.3353,-20.29695 h 2.9414 l 17.1137,18.94407 4.6938,-13.67927 -19.2686,-12.6504 -1.1943,-0.74723 c 17.3003,-9.36311 39.2683,-9.53115 58.4208,-9.45266 l 0.2392,-1.2268 c -18.5668,-4.91768 -38.9135,-3.83947 -58.2621,-0.93947 l -1.5833,-2.14303 c 13.7483,-7.04347 29.2942,-12.55007 55.0989,-9.28728 l -0.064,-1.64952 c -8.1575,-1.45382 -15.452,-2.12589 -22.0865,-2.19883 z m -23.3681,29.84056 12.3935,8.13697 c 11.5554,-1.20754 22.8899,0.78663 34.0817,4.85086 l 0.4046,-1.15341 c -13.2637,-9.34247 -29.7226,-11.39085 -46.8798,-11.83442 z m 12.3062,16.71371 -3.2592,9.27282 0.045,0.0501 c 10.4783,-1.64933 22.3751,-0.65156 33.0326,1.70067 l 0.4888,-1.49655 c -6.2143,-3.30852 -19.2023,-8.70775 -30.3077,-9.52707 z" /><path
       id="path46"
       style="display:inline;fill:#000000;stroke:none;stroke-width:0.264583px;stroke-linecap:butt;stroke-linejoin:miter;stroke-opacity:1"
       d="m 1354.6098,273.90457 c -0.1068,0.0177 -0.2084,0.0707 -0.2796,0.154 -6.6118,7.73713 -15.37,13.92788 -29.4571,15.92357 -4.7577,0.67401 -9.5465,1.41219 -13.8364,2.60966 l 2.6743,-6.64042 c -8.2244,3.64825 -16.7276,8.85777 -25.4775,15.44919 3.7596,-1.2999 7.4864,-2.14841 11.2871,-2.6231 5.4761,-0.68394 10.3438,0.41388 15.6197,1.08262 5.276,0.66874 10.9943,0.9679 18.4816,-1.09244 l 4.1641,-1.14567 -2.5575,3.48041 c -5.7288,7.79633 -12.951,10.76144 -20.7558,10.89753 l 2.9983,1.65623 -1.7467,1.97197 3.1554,2.28462 -1.7591,2.42982 -5.8363,-4.2261 1.4572,-1.64537 -5.7505,-3.17707 0.9782,-2.79156 c 8.4911,1.4509 15.799,0.43638 22.0204,-5.86114 -5.9022,1.04158 -10.8432,0.7504 -15.2265,0.19482 -5.44,-0.68954 -10.0139,-1.68866 -14.8704,-1.08211 -7.1253,0.88992 -13.8999,3.12394 -21.3604,7.42436 -0.073,0.0625 -0.1461,0.11969 -0.2197,0.18241 -6.8005,3.65503 -11.8163,3.23859 -16.4331,1.91203 -10.4791,8.94928 -12.7686,19.00509 -14.2368,28.91297 1.2523,-2.28064 2.39,-5.07962 4.5217,-6.84713 1.589,-1.31761 5.8557,-3.5526 8.6299,-4.57337 l 1.602,2.45464 c 36.3592,-10.06198 66.6484,5.59557 102.5203,-34.48214 0.1462,-0.16324 0.1494,-0.4316 0.01,-0.59893 l -0.056,-0.0661 c -0.1415,-0.16732 -0.4034,-0.20367 -0.5854,-0.0816 -10.1422,6.79714 -16.7463,9.27943 -24.3722,13.00799 3.433,-5.93358 5.9291,-6.50871 8.63,-7.80314 18.5171,-8.87476 26.203,-22.70795 28.2582,-25.23515 0.1381,-0.16988 0.1193,-0.39156 -0.063,-0.51315 l -0.1147,-0.0765 c -0.1824,-0.12158 -0.4736,-0.11527 -0.6506,0.0139 -7.615,5.55703 -15.0856,11.19302 -29.4456,13.04675 3.7703,-4.54548 6.3192,-9.22492 8.5623,-13.90458 0.095,-0.19764 0.02,-0.45098 -0.1669,-0.56585 -0.092,-0.0567 -0.2043,-0.0745 -0.3111,-0.0569 z m -62.7812,35.5353 c 1.2324,0.006 2.4579,0.0307 3.6907,0.0351 -4.3177,2.10695 -5.3437,2.77874 -11.6199,6.35775 -3.3518,-0.0302 -7.1618,-1.18015 -9.5922,-2.30167 6.7154,-3.7943 12.1811,-4.11668 17.5214,-4.09122 z" /><path
       id="path22"
       style="display:inline;fill:#000000;stroke:none;stroke-width:2.42405;stroke-linecap:round;stroke-linejoin:round"
       d="m 1462.2667,94.59571 a 62.446535,62.446535 0 0 0 -62.446,62.44632 62.446535,62.446535 0 0 0 62.446,62.44632 62.446535,62.446535 0 0 0 62.446,-62.44632 62.446535,62.446535 0 0 0 -62.446,-62.44632 z m 10.231,11.28458 a 34.255935,26.332792 41.770423 0 1 27.133,10.42004 34.255935,26.332792 41.770423 0 1 8.007,42.4589 34.255935,26.332792 41.770423 0 1 -43.091,-3.18016 34.255935,26.332792 41.770423 0 1 -8.006,-42.45891 34.255935,26.332792 41.770423 0 1 15.957,-7.23987 z m -38.538,68.40616 a 21.872036,16.520368 30.695802 0 1 13.192,3.86127 21.872036,16.520368 30.695802 0 1 10.375,25.37106 21.872036,16.520368 30.695802 0 1 -27.241,3.04064 21.872036,16.520368 30.695802 0 1 -10.375,-25.37106 21.872036,16.520368 30.695802 0 1 14.049,-6.90191 z" /><path
       id="text1"
       style="font-weight:bold;font-size:96px;line-height:1.25;font-family:Serif;-inkscape-font-specification:'Serif Bold';text-align:end;text-anchor:end;white-space:pre;display:inline;fill:#000000;stroke:none;stroke-width:1.85258"
       d="m 1589.1044,95.662769 c -10.4787,0 -19.5705,2.984724 -26.6366,9.168951 -5.4596,4.77817 -9.7493,10.08111 -9.7493,19.4598 0,5.49985 1.2447,10.53663 3.7341,15.11019 2.5473,4.57356 6.1658,8.7132 10.8552,12.41836 1.1923,0.94212 2.7933,1.87528 4.6839,2.82877 4.0669,-2.06277 8.56,-3.14548 13.1201,-3.16157 8.2288,0.005 16.0744,3.4774 21.6106,9.56531 4.7425,-1.2582 9.3933,-2.49075 14.887,-3.96513 -5.1862,-4.14624 -12.2871,-8.45322 -21.3894,-12.92789 -10.6479,-5.29306 -27.9375,-14.34264 -26.987,-25.18348 1.0738,-12.247 12.4869,-13.51184 17.4346,-13.51184 7.6419,0 14.8586,4.70496 21.2757,10.85877 5.7775,5.54048 6.6463,8.74972 10.3714,18.44539 h 5.6069 l -0.955,-38.959386 h -4.6519 c -0.4968,3.4584 -1.5628,4.627656 -2.6504,5.371246 -2.3488,1.6058 -7.69,0.72982 -9.5447,-0.22014 -3.8788,-1.910472 -7.1787,-3.213053 -9.8996,-3.907771 -3.5894,-0.92629 -7.2947,-1.38958 -11.1156,-1.38958 z m 81.3428,52.887221 c -0.2059,-0.0271 -0.42,-0.0146 -0.6315,0.0429 -8.2833,2.25658 -48.1125,13.09622 -68.8139,18.53529 -14.0158,3.68253 -35.8561,11.36477 -43.2656,16.76797 -0.7063,-1.98125 -1.3328,-4.25681 -1.8913,-6.99854 h -3.2132 v 41.31634 h 5.2596 c 1.8958,-8.46973 9.1952,-9.48076 16.0832,-6.02496 6.4762,3.24917 15.6654,5.33228 18.9224,5.78983 4.563,0.64102 20.3322,2.05965 30.7697,-8.51575 7.3671,-7.46448 11.5497,-15.60209 11.5497,-25.44392 0,-5.53451 -1.2311,-10.61879 -3.6473,-15.26936 -4.3433,1.34728 -11.6281,3.61984 -14.1299,4.39198 -0.8078,0.24931 -2.2821,0.65869 -3.838,1.09554 0.489,2.12642 0.7384,4.30089 0.7436,6.48281 -0.029,2.49278 -0.3759,4.97166 -1.0335,7.37629 -0.119,0.57329 -0.2887,1.13584 -0.4749,1.69551 -0.013,0.0452 -0.025,0.0903 -0.038,0.13538 l -0.011,-0.006 c -4.5601,13.31298 -27.5796,22.33209 -43.3003,9.28362 -1.9676,-1.79452 -3.6667,-3.34054 -5.1764,-4.88806 4.7564,-13.52372 46.0552,-23.59725 51.831,-25.37985 17.3407,-5.35198 46.9336,-14.4965 54.4364,-16.81499 0.9773,-0.302 1.5357,-1.34208 1.247,-2.32337 l -0.029,-0.10077 c -0.1856,-0.63083 -0.7305,-1.06685 -1.3483,-1.14825 z m -84.6072,5.84977 c -2.4411,-0.007 -4.6198,0.34168 -6.3552,0.74155 0,0 -1.5729,3.40236 -1.1865,4.85449 0.4299,1.61544 2.5059,0.93109 3.1373,2.47892 0.442,1.08361 1.9959,2.17261 1.2748,3.09438 -1.1511,1.47145 -0.554,3.19496 1.6056,3.26389 1.3305,0.0425 1.7667,-1.70576 2.0588,-3.00447 0.2004,-0.89086 -0.329,-1.74552 0.053,-2.57504 0.489,-1.06271 2.8811,-0.0252 3.9781,-0.4315 1.1341,-0.42006 1.5545,-2.58956 2.5993,-1.98024 0.4261,0.2485 0.6799,0.92491 0.5116,1.38855 -0.5178,1.42572 -2.8057,1.26584 -3.9466,2.26549 -1.1762,1.03075 -2.8504,3.72742 -2.8504,3.72742 l 17.1013,-5.33507 c -5.972,-6.72999 -12.6105,-8.47231 -17.9809,-8.48837 z m -15.0658,8.06927 c -0.057,0.002 -0.1115,0.007 -0.1632,0.0156 -1.2774,0.21612 -1.2636,2.34106 -2.2737,3.15227 -0.746,0.59905 -1.9838,0.43646 -2.6355,1.13688 -0.8202,0.88137 -0.4437,2.46481 -1.1886,3.41064 -1.1027,1.40016 -3.4177,1.47478 -4.4959,2.89388 -1.1803,1.55352 -1.5077,7.45967 -1.6019,7.64811 2.1717,-1.52606 2.1328,-2.42053 9.6635,-5.4777 0.5749,-0.22113 -0.6927,-3.57889 -1.2919,-4.28914 -0.2882,-0.34155 1.0139,-0.56137 1.4469,-0.6718 0.9015,-0.2299 2.6475,1.24658 3.1523,0.46509 0.6027,-0.93324 -0.044,-3.61768 1.2919,-6.82129 0.3035,-0.72772 -1.0501,-1.4861 -1.9038,-1.46244 z m 40.411,11.63909 -6.2389,1.86603 c 0,0 1.6643,0.38076 2.141,1.04438 0.617,0.85901 -0.2113,2.35926 0.6196,3.01377 2.0535,1.6178 3.3541,5.11936 3.4178,5.10718 0.4506,-0.086 0.6857,-0.2609 0.9204,-1.3534 0.6688,-3.11415 0.1341,-6.6329 -0.8599,-9.67796 z m -18.2552,15.71325 c -2.0508,-0.0154 -3.4829,3.45169 -5.6793,3.56567 -3.8793,0.20131 -7.8215,1.65313 -10.9554,4.44624 -0.7922,0.70604 -2.481,-0.49474 -3.7734,-0.84491 -0.5847,-0.68847 -1.6386,-1.97147 -2.1177,-2.82618 -0.5146,-0.91806 -1.1369,-2.94556 -1.1369,-2.94556 -0.8692,0.5275 -1.5766,1.54014 -2.1704,2.89388 l 0.6718,0.56844 c 0,0 0.4957,-0.98939 0.9302,-0.93017 0.4509,0.0615 0.4378,0.79824 0.6718,1.18855 0.6435,1.07327 0.822,2.80777 1.9714,3.22409 0.069,0.15492 0.1425,0.2954 0.199,0.39325 0.9954,1.72161 6.2627,2.10479 6.2627,2.10479 l 2.9419,1.77354 c 4.8735,1.13439 5.069,0.91219 6.9184,0.97927 l 2.0671,-1.44694 5.6229,0.3948 c 1.5304,-0.45004 3.519,-1.11127 5.7712,-2.93574 0,0 -2.835,-2.30944 -3.8493,-3.55688 -1.5071,-1.85342 -1.6037,-5.44056 -3.9274,-5.99447 -0.1427,-0.034 -0.2819,-0.0506 -0.4186,-0.0517 z" /><path
       id="path1-7"
       style="display:inline;fill:#000000;stroke:none;stroke-width:0.14017"
       d="m 1762.2666,96.81263 c -4.807,30.37368 -24.1484,31.60463 -24.1484,63.48346 0,22.26721 14.5916,30.10049 24.1484,30.10049 9.5572,0 24.1484,-7.83328 24.1484,-30.10049 0,-31.87883 -19.3412,-33.10978 -24.1484,-63.48346 z m -18.7658,7.3949 c 0,0 -26.1239,19.4473 -26.6159,49.10501 -0.3172,19.12378 5.6217,26.06003 13.9578,31.4818 7.5645,4.9199 13.0505,5.64975 10.7125,3.74602 -5.0716,-4.12963 -12.3901,-13.51827 -12.3901,-27.59211 0,-17.08425 3.6839,-25.45915 10.0776,-33.44188 0.4713,-0.66804 0.7514,-1.02733 0.7514,-1.02733 -1.3534,-1.75449 -1.8137,-2.62321 -2.1461,-8.30596 -0.3325,-5.68273 5.6528,-13.96555 5.6528,-13.96555 z m 37.5316,0 c 0,0 5.9853,8.28282 5.6529,13.96555 -0.3325,5.68275 -0.7927,6.55147 -2.1461,8.30596 0,0 0.28,0.35929 0.7513,1.02733 6.3937,7.98273 10.0776,16.35763 10.0776,33.44188 0,14.07384 -7.3185,23.46248 -12.3901,27.59211 -2.338,1.90373 3.1481,1.17388 10.7125,-3.74602 8.3362,-5.42177 14.2751,-12.35802 13.9578,-31.4818 -0.4919,-29.65771 -26.6159,-49.10501 -26.6159,-49.10501 z m -61.9058,2.70733 c -0.9235,0.51309 -25.9296,12.94806 -23.6295,46.4292 1.5172,22.08659 7.2927,29.21781 17.0961,35.16788 10.6342,6.45434 19.6167,5.50492 15.5773,3.82406 -7.1794,-2.98748 -12.9907,-10.17049 -16.3892,-16.61449 -3.4788,-6.5965 -4.3049,-16.35787 -3.7269,-22.32112 0.6529,-6.73561 1.8366,-11.71011 4.5822,-18.58181 -2.271,-2.06528 -9.4038,-12.28533 6.49,-27.90372 z m 86.28,0 c 15.8939,15.61839 8.761,25.83844 6.4901,27.90372 2.7456,6.8717 3.9292,11.8462 4.5821,18.58181 0.578,5.96325 -0.248,15.72462 -3.7269,22.32112 -3.3984,6.444 -9.2098,13.62701 -16.3892,16.61449 -4.0393,1.68086 4.9431,2.63028 15.5774,-3.82406 9.8034,-5.95007 15.5788,-13.08129 17.0961,-35.16788 2.3,-33.48114 -22.7061,-45.91611 -23.6296,-46.4292 z m -43.14,89.3811 c -31.3362,0 -37.4446,9.84836 -51.3214,10.73682 -8.7639,-1.08629 -14.8714,-2.89233 -14.8714,-2.89233 0,0 13.0435,11.4237 27.651,11.46028 11.5351,0 20.6009,-3.26559 29.7868,-4.8271 0.3775,1.73403 2.506,6.4978 8.755,6.4978 6.2493,0 8.378,-4.76368 8.7555,-6.4978 9.1859,1.56154 18.2515,4.8271 29.7864,4.8271 14.6077,-0.0367 27.6515,-11.46028 27.6515,-11.46028 0,0 -6.108,1.80604 -14.872,2.89233 -13.877,-0.88846 -19.9852,-10.73682 -51.3214,-10.73682 z" /><path
       id="path59"
       style="display:inline;fill:#000000;stroke:none;stroke-width:0.264583px;stroke-linecap:butt;stroke-linejoin:miter;stroke-opacity:1"
       d="m 1762.4566,252.07303 c -4.6321,7.45827 -15.8924,19.06369 -21.502,25.57983 -6.4851,8.97798 -9.6451,15.60912 -10.849,21.87257 -1.1154,5.80321 -0.6046,11.57274 0.754,18.96111 8.4148,-7.32791 21.3267,-13.24742 29.7501,-20.27215 l 1.9213,-1.60248 1.9214,1.60248 c 8.2709,6.89756 20.8725,12.72835 29.2922,19.87424 1.303,-7.19606 1.7778,-12.86545 0.6827,-18.5632 -1.2085,-6.28732 -4.3905,-12.9471 -10.926,-21.97748 -5.8637,-7.27237 -16.4868,-18.66011 -21.0447,-25.47492 z m -28.1523,8.50387 c -2.3103,8.27003 -7.8911,16.5915 -12.4741,24.86153 -1.1279,-2.93297 -4.3857,-6.36611 -5.0085,-8.06204 -2.4256,6.90093 -6.0976,13.59923 -8.0135,20.73 l 15.1727,15.27865 c -0.648,-5.21259 -0.7207,-10.03209 0.2326,-14.99185 1.5689,-8.16264 5.8425,-16.38541 14.0761,-27.24019 -1.4508,-3.22483 -2.9314,-6.05264 -3.9853,-10.5761 z m 55.9243,0 c -1.0539,4.52346 -2.5345,7.35127 -3.9853,10.5761 8.2336,10.85478 12.5072,19.07755 14.0761,27.24019 0.9533,4.95976 0.8807,9.77926 0.2326,14.99185 l 15.1727,-15.27865 c -1.9159,-7.13077 -5.5879,-13.82907 -8.0135,-20.73 -0.6228,1.69593 -3.8806,5.12907 -5.0084,8.06204 -4.5831,-8.27003 -10.1639,-16.5915 -12.4742,-24.86153 z m -92.7256,37.89536 c 4.0358,13.21152 -3.1203,25.3105 24.3018,40.84608 -0.2015,-1.46022 -0.2382,-2.94961 -0.088,-4.41833 0.3931,-3.83809 1.8345,-7.65761 4.0944,-10.93628 -0.019,-0.0938 -0.036,-0.18199 -0.055,-0.27544 l -18.1669,-18.29346 c -3e-4,0.007 -0,0.0134 0,0.0202 -3.7784,-3.3386 -7.5841,-4.00271 -10.0851,-6.94272 z m 129.5269,0 c -2.501,2.94001 -6.3066,3.60412 -10.0851,6.94273 -3e-4,-0.007 -10e-4,-0.0134 0,-0.0202 l -18.0051,18.13068 c 2.4396,3.37351 3.9962,7.36346 4.407,11.3745 0.139,1.35792 0.1214,2.73418 -0.039,4.08864 26.7435,-15.37743 19.7164,-27.39842 23.7236,-40.51639 z m -64.4989,5.8384 c -10.4645,8.1352 -24.3681,14.69385 -30.2984,21.1708 -2.4896,2.71912 -4.1919,6.56205 -4.547,10.02988 -0.3551,3.46783 0.5062,6.29936 2.6443,8.04292 l -0.1,0.12248 c 2.3435,1.11204 4.855,2.24064 7.5789,3.39049 -3.7687,1.01107 -7.5253,1.25222 -11.2681,1.13274 v 0.004 c 0,-0.001 0,-0.003 -0.01,-0.004 -10.2503,-0.32861 -20.3941,-3.43884 -30.3753,-1.4428 9.8312,4.59991 20.5761,10.81657 30.4891,11.11043 12.6259,0.37427 18.3442,-2.29508 24.8475,-4.00028 0.6741,3.02785 3.8879,8.14369 10.772,8.14369 6.8841,0 10.0979,-5.11584 10.772,-8.14369 6.5033,1.7052 12.2216,4.37455 24.8475,4.00028 9.913,-0.29385 20.6578,-6.51052 30.4891,-11.11043 -9.8017,-1.96013 -19.7603,1.00119 -29.8225,1.42007 -0.01,0.008 -0.018,0.0185 -0.028,0.0269 l -0.021,-0.0253 c -3.912,0.15961 -7.8391,-0.0544 -11.7796,-1.11156 2.9542,-1.24707 5.6685,-2.4699 8.1768,-3.67265 2.007,-1.75372 2.8208,-4.51378 2.4758,-7.88324 -0.3551,-3.46783 -2.0574,-7.31075 -4.547,-10.02987 -5.9302,-6.47696 -19.8339,-13.03561 -30.2984,-21.17081 z" /><path
       id="path2"
       style="display:inline;fill:#000000;stroke:none;stroke-width:0.264583px;stroke-linecap:butt;stroke-linejoin:miter;stroke-opacity:1"
       d="M 103.46747,92.446149 C 89.216299,92.79141 73.729609,98.536715 58.352909,111.82585 l 25.18,17.46709 c 45.363541,-26.8081 85.590531,29.86124 54.520051,59.57989 l 9.53533,8.84442 c 41.91438,-38.85992 6.7762,-106.504174 -44.12082,-105.271101 z m 4.85086,35.521861 c -6.09369,0.0725 -12.463631,1.84119 -18.656221,5.78363 l 2.60863,5.86993 3.098,-0.32608 0.97823,6.68486 c -8.16008,5.09801 -16.42294,10.16422 -19.07635,16.95659 -8.05656,-2.17736 -11.2139,1.67503 -13.69581,6.35879 l 27.06554,12.22871 -7.82588,29.51138 -8.31578,-2.93522 -2.7714,9.78286 c 12.5505,9.7076 17.78861,-1.91183 25.59792,-6.03271 l 4.402311,5.21726 c 2.62288,-0.88173 27.94522,-7.75659 19.72852,-17.60875 l -3.8313,0.57051 0.0811,-4.80953 6.35879,-5.86992 2.44585,2.28254 c 34.12239,-24.9877 11.16834,-64.0144 -18.19217,-63.66485 z m -34.343141,51.07204 c -0.46949,1.72979 0.10829,2.31787 1.21028,3.22853 -2.76333,1.62914 -3.93874,7.20913 -4.84208,10.14563 -0.90334,2.93651 0.23167,3.86047 2.30581,3.51607 2.07413,-0.3444 3.28558,-0.46095 3.28558,-0.46095 1.05911,3.3369 -2.55109,5.7153 -0.30822,6.33994 -1.73235,0.75728 1.23646,1.50987 0.85093,3.07895 l 3.72331,1.23716 6.02901,-22.24978 -1.12928,-0.39668 c -1.8552,1.86604 -3.67585,2.20549 -5.85095,1.58547 l -0.20191,-3.94863 z" /><path
       id="path50"
       style="display:inline;fill:#000000;stroke:none;stroke-width:0.264583px;stroke-linecap:butt;stroke-linejoin:miter;stroke-opacity:1"
       d="m 102.97317,255.87965 c -20.039315,0.35147 -40.426185,9.44527 -55.991925,29.80231 l 25.83822,17.72501 c 35.158585,-41.95189 79.064455,-5.58912 80.615745,19.65669 h 24.11687 c -4.23824,-40.65617 -38.85664,-67.81055 -74.57891,-67.18401 z m 5.34955,31.49213 v 14.01413 c 11.49592,0.6906 19.54756,6.72603 25.52661,15.97732 4.4972,-5.95333 7.82385,-4.65198 11.40033,-4.89686 -9.09113,-18.36364 -22.48782,-23.34794 -36.92694,-25.09459 z m -3.00034,13.8839 c -8.320935,0.43865 -16.175305,3.49963 -22.995495,12.38013 l 22.995495,14.71176 z m 3.00034,3.34967 v 16.03468 c 17.41417,-3.7767 23.79008,9.9981 23.77271,17.77049 4.06688,-21.74722 -10.49968,-33.25798 -23.77271,-33.80517 z m -25.118885,12.02666 -13.15475,20.24372 2.48461,-0.0729 7.96592,-12.49691 5.26169,0.14625 2.85047,-4.16616 z m 31.739155,6.51794 c -2.02956,-0.004 -4.24384,0.38526 -6.62027,1.23817 v 7.11637 l -9.298655,14.07252 -0.32712,0.50695 h 29.013215 c 5.57293,-7.76895 -0.0143,-22.9112 -12.76717,-22.93401 z m -33.127695,3.27526 -20.90157,31.7903 43.629895,-27.18645 -6.065775,-4.60385 z m 20.570315,8.62221 -28.225665,17.68729 h 16.53853 z" /><path
       id="path100"
       style="display:inline;fill:#000000;stroke:none;stroke-width:0.229383"
       d="m 230.23171,101.79186 c -0.33571,0.002 -0.67779,0.0118 -1.0263,0.03 -4.30724,0.22464 -9.51798,1.71961 -15.8011,5.14594 -7.4423,4.05848 -9.87015,9.33396 -9.76116,14.40067 0.10647,4.94978 2.60333,9.46276 4.57491,12.30984 l 1.54306,2.08514 4.77645,-5.17952 0.0481,-0.0455 c 0.22725,-0.21733 0.68472,-0.65328 1.28726,-1.21905 l 0.88419,-0.82993 -0.69609,-0.99373 c -1.00749,-1.43753 -2.39819,-3.93399 -2.57141,-6.42493 -0.0866,-1.24548 0.10251,-2.47969 0.75499,-3.70727 0.65248,-1.22759 1.78802,-2.47771 3.73465,-3.65662 2.82521,-1.71105 5.17354,-2.56194 7.09053,-2.86185 1.91698,-0.2999 3.40224,-0.0658 4.62194,0.43357 2.43939,0.99871 3.91211,3.20614 4.6824,4.8519 l 0.57361,1.22577 1.24385,-0.53124 c 1.84709,-0.78847 4.92247,-1.9334 8.98911,-2.86236 l 1.6428,-0.37516 -0.66973,-1.54668 c -1.18859,-2.74225 -5.24271,-9.83522 -14.93397,-10.23193 -0.32305,-0.0132 -0.65236,-0.019 -0.98805,-0.0171 z m 64.0705,0 c -0.33569,-0.002 -0.66501,0.004 -0.98805,0.017 -9.69126,0.39671 -13.74538,7.48968 -14.93397,10.23193 l -0.66973,1.54668 1.64279,0.37517 c 4.06665,0.92896 7.14203,2.07388 8.98912,2.86235 l 1.24385,0.53124 0.57361,-1.22577 c 0.77029,-1.64576 2.24301,-3.85319 4.6824,-4.8519 1.2197,-0.49935 2.70496,-0.73347 4.62194,-0.43356 1.91699,0.2999 4.26532,1.15079 7.09052,2.86184 1.94664,1.17891 3.08218,2.42904 3.73466,3.65662 0.65248,1.22759 0.8416,2.4618 0.75499,3.70727 -0.17322,2.49094 -1.56393,4.98741 -2.57142,6.42493 l -0.69608,0.99374 0.88419,0.82992 c 0.60254,0.56578 1.06,1.00173 1.28726,1.21905 l 0.0481,0.0455 4.77646,5.17953 1.54306,-2.08515 c 1.97157,-2.84707 4.46844,-7.36006 4.57491,-12.30984 0.10894,-5.06671 -2.31891,-10.3422 -9.76121,-14.40067 -6.28313,-3.42633 -11.49387,-4.9213 -15.8011,-5.14594 -0.34851,-0.0182 -0.6906,-0.028 -1.0263,-0.03 z m -32.04507,16.77468 v 5.3e-4 c -9.15035,0.005 -15.30036,2.39349 -16.0538,2.85409 3.65695,1.14783 5.81702,4.60791 6.11384,9.90896 1.67846,-1.00673 5.19827,-1.50111 9.94978,-1.50379 4.75151,0.003 8.27132,0.49706 9.94978,1.50379 0.29682,-5.30105 2.45689,-8.76113 6.11384,-9.90896 -0.75344,-0.4606 -6.90346,-2.84881 -16.0538,-2.85409 v -5.3e-4 h -0.01 z m -29.1729,4.70514 c -9.66804,0 -10.34305,6.27102 -10.34252,9.56428 0,7.56827 6.47196,7.21712 6.47196,7.21712 l 1.32395,-3.17603 c -1.72795,-1.09576 -3.23383,-2.86771 -2.96933,-4.70255 0.33455,-2.32074 2.93965,-4.54781 5.28236,-4.64468 2.15732,-0.0892 4.94353,1.71702 5.20124,3.86075 0.37048,3.08176 -1.54288,4.52499 -5.94848,7.16441 0.95561,0.60581 2.81395,1.05731 4.02922,1.05731 4.6262,0 6.34948,-3.17042 6.34948,-7.45071 0,-2.67622 -0.52762,-8.8899 -9.39788,-8.8899 z m 58.36544,0 c -8.87026,0 -9.39788,6.21368 -9.39788,8.8899 0,4.28029 1.72328,7.45071 6.34948,7.45071 1.21527,0 3.07361,-0.4515 4.02921,-1.05731 -4.40559,-2.63942 -6.31895,-4.08265 -5.94847,-7.16441 0.25771,-2.14373 3.04392,-3.94996 5.20123,-3.86075 2.34272,0.0969 4.94782,2.32394 5.28237,4.64468 0.2645,1.83484 -1.24139,3.60679 -2.96933,4.70255 l 1.32395,3.17603 c 0,0 6.47196,0.35115 6.47196,-7.21712 5.3e-4,-3.29326 -0.67448,-9.56428 -10.34252,-9.56428 z m -76.06255,13.99191 c -0.7081,0.52766 -9.07651,9.79027 -9.24749,15.82901 -0.0924,3.26466 0.085,44.19329 0.26923,47.41829 0.21836,3.82282 5.32939,11.78171 5.32939,11.78171 l 9.69657,-6.95978 c 0,0 -4.61097,-6.69632 -4.59766,-9.00307 0.0175,-3.03978 0.31779,-37.09726 0.27286,-39.90454 -0.0548,-3.42115 4.80453,-9.35163 5.6596,-10.33012 -4.93865,-2.69185 -6.74415,-5.00969 -7.3825,-8.8315 z m 93.75965,0 c -0.63834,3.82181 -2.44384,6.13965 -7.38249,8.8315 0.85507,0.97849 5.71436,6.90897 5.6596,10.33012 -0.0449,2.80728 0.25532,36.86476 0.27285,39.90454 0.0133,2.30675 -4.59765,9.00307 -4.59765,9.00307 l 9.69657,6.95978 c 0,0 5.11103,-7.95889 5.32939,-11.78171 0.18421,-3.225 0.36167,-44.15363 0.26923,-47.41829 -0.17098,-6.03874 -8.5394,-15.30135 -9.2475,-15.82901 z m -46.89274,0.2434 v 5.3e-4 c -6.68767,0.006 -11.48033,2.00515 -13.1656,2.82566 v 8.31732 c 0,0 -6.54401,-2.84323 -13.8033,-2.84323 -4.86404,0 -8.11199,3.40428 -8.56536,9.58546 -2.83841,0.58333 -3.37034,4.48013 -3.37034,6.28799 0,6.72941 0.0925,21.10126 0.95963,28.0541 0.74182,5.94607 5.75972,17.62837 14.74225,17.62837 h 23.21564 23.21564 c 8.98252,0 14.00043,-11.6823 14.74225,-17.62837 0.86711,-6.95284 0.95963,-21.32469 0.95963,-28.0541 0,-1.80786 -0.53193,-5.70466 -3.37034,-6.28799 -0.45337,-6.18118 -3.70132,-9.58546 -8.56536,-9.58546 -7.2593,0 -13.8033,2.84323 -13.8033,2.84323 v -8.31732 c -1.68527,-0.82051 -6.47793,-2.82016 -13.1656,-2.82566 v -5.3e-4 h -0.0129 z m -27.31048,21.84569 c 4.37981,0.16108 11.76741,3.45716 16.07809,3.45716 6.21364,0 3.64307,-0.6269 11.24531,-0.6269 7.60224,0 5.03168,0.6269 11.24531,0.6269 6.27007,0 19.05039,-6.97329 19.61482,-1.12965 0.56444,5.84364 3.38327,33.06694 -5.43377,33.27135 -3.15066,0 -7.28259,0.88264 -25.42636,0.88264 -18.14377,0 -22.2757,-0.88264 -25.42635,-0.88264 -8.81704,-0.20441 -5.99822,-27.42771 -5.43378,-33.27135 0.17639,-1.82614 1.54591,-2.40073 3.53673,-2.32751 z m 5.3945,4.93872 c -1.84194,0 -4.16722,1.64619 -4.79092,3.37964 -1.50636,4.18624 2.13732,18.15341 5.17023,18.15341 1.59215,0 4.16587,-10.01618 6.44043,-15.39957 0.86936,-2.05688 -2.19445,-6.13348 -6.81974,-6.13348 z m 43.85779,0 c -4.62528,0 -7.6891,4.0766 -6.81973,6.13348 2.27456,5.38339 4.84828,15.39957 6.44043,15.39957 3.03291,0 6.67659,-13.96717 5.17023,-18.15341 -0.6237,-1.73345 -2.94898,-3.37964 -4.79093,-3.37964 z m -31.79651,16.25534 c -1.7383,-0.007 -8.13097,11.53698 -4.58163,11.64425 1.69177,0.051 7.30462,0.0683 9.23561,-0.003 2.31188,-0.0847 -2.9314,-11.63508 -4.65398,-11.64167 z m 19.73523,0 c -1.72257,0.007 -6.96585,11.55693 -4.65397,11.64166 1.93099,0.0708 7.54384,0.0534 9.23561,0.003 3.54934,-0.10726 -2.84333,-11.65089 -4.58164,-11.64424 z" /><path
       id="path58"
       style="display:inline;fill:#000000;stroke:none;stroke-width:3.53552;stroke-linecap:round;stroke-linejoin:round"
       d="m 230.70044,244.24722 c -2.44307,0.008 -4.96309,0.26679 -7.42693,0.84284 -6.65574,1.55611 -12.87196,5.29982 -16.61552,12.33982 -2.95072,5.549 -4.09186,12.75957 -2.8608,21.81675 l 0.91673,6.74688 c -0.85434,2.12242 -1.47495,4.2046 -1.6521,6.09472 l -3.95531,42.2031 -4.57285,4.82193 v 30.72435 L 232.0544,356.8291 c 0,0 18.9237,2.63093 30.2126,2.63093 11.28888,0 30.21258,-2.63093 30.21258,-2.63093 l 37.52075,13.00851 v -30.72435 l -4.57285,-4.82193 -3.95531,-42.2031 c -0.17714,-1.89011 -0.79775,-3.9723 -1.6521,-6.09472 l 0.91674,-6.74688 c 1.23104,-9.05718 0.0899,-16.26774 -2.8608,-21.81675 -3.74356,-7.03999 -9.95979,-10.78371 -16.61552,-12.33982 -2.46385,-0.57605 -4.98386,-0.83482 -7.42694,-0.84284 -4.02344,-0.0132 -8.09068,0.66478 -11.56932,1.86965 -3.34021,1.15693 -6.29567,2.93081 -8.35143,4.94802 l -2.5492,2.50114 c -3.12911,-0.26807 -6.20413,-0.38285 -9.0966,-0.31884 -2.89247,-0.064 -5.96749,0.0508 -9.09661,0.31884 l -2.5492,-2.50114 c -2.05575,-2.01721 -5.0112,-3.79109 -8.35143,-4.94802 -3.47863,-1.20487 -7.54587,-1.88287 -11.56932,-1.86965 z m 0.0196,6.00015 c 3.40421,-0.0112 6.75724,0.55916 9.58598,1.53892 2.69761,0.93435 4.78344,2.25659 6.11281,3.56103 -3.39156,0.5075 -7.03138,1.21873 -10.72131,2.29236 -1.80686,-0.45343 -3.54796,-0.64126 -5.19297,-0.59169 -3.11935,0.094 -5.8933,1.03952 -8.1163,2.63601 -3.31553,2.38113 -5.35657,6.06532 -5.98774,10.06347 -1.12531,1.27976 -2.24578,2.64108 -3.34347,4.06229 -1.15965,1.50142 -2.27827,3.05248 -3.31453,4.62865 -1.10286,-8.11409 -0.0113,-14.0092 2.21279,-18.19165 2.7886,-5.24412 7.41084,-8.0813 12.68398,-9.31416 1.97742,-0.46232 4.03824,-0.67852 6.08076,-0.68523 z m 63.09383,0 c 2.04252,0.007 4.10334,0.22291 6.08076,0.68523 5.27314,1.23286 9.8954,4.07004 12.68399,9.31416 2.22404,4.18245 3.31564,10.07756 2.21278,18.19165 -1.03625,-1.57617 -2.15488,-3.12723 -3.31453,-4.62865 -1.09769,-1.42121 -2.21816,-2.78253 -3.34346,-4.06229 -0.63118,-3.99815 -2.67221,-7.68234 -5.98775,-10.06347 -2.223,-1.59649 -4.99695,-2.54201 -8.1163,-2.63601 -1.64501,-0.0496 -3.38611,0.13826 -5.19297,0.59169 -3.68993,-1.07363 -7.32975,-1.78486 -10.7213,-2.29236 1.32936,-1.30444 3.4152,-2.62668 6.1128,-3.56103 2.82874,-0.97976 6.18177,-1.5501 9.58598,-1.53892 z m -31.5469,8.99687 c 0,0 19.46753,-0.46967 33.55919,6.37118 2.30206,1.11755 7.49213,5.81041 11.69386,11.25048 4.20172,5.44007 7.60945,11.84627 7.97832,15.78198 l 4.16667,44.4593 5.14801,5.1015 v 21.23488 l -28.53315,-10.91768 c 0.95465,-1.96689 2.27302,-4.77151 3.8747,-8.65529 2.57758,-6.25013 5.30966,-13.86538 5.75521,-20.1228 0.71913,-10.09971 -0.75227,-17.00626 -2.50321,-21.44468 -0.83123,-2.10707 -1.76927,-3.6652 -2.53628,-4.76095 0.0704,-0.14333 0.15157,-0.25591 0.21756,-0.4129 0.76168,-1.81195 1.3198,-4.62168 1.41698,-9.78906 0.10821,-5.75541 -2.34485,-10.19977 -5.80276,-12.54291 -0.38514,-4.72283 -3.87667,-7.88788 -7.5582,-7.92561 -3.22843,-0.0331 -6.34476,2.35959 -7.32667,6.08541 h -1.71359 c -0.62007,-1.46655 -1.53303,-2.70621 -2.57142,-3.65714 -1.91327,-1.75211 -4.14408,-2.69699 -6.3624,-2.69699 h -8.90282 -8.90283 c -2.21831,0 -4.44913,0.94488 -6.3624,2.69699 -1.03838,0.95093 -1.95134,2.19059 -2.57141,3.65714 h -1.7136 c -0.98191,-3.72582 -4.09825,-6.1185 -7.32668,-6.08541 -3.68152,0.0377 -7.17306,3.20278 -7.5582,7.92561 -3.4579,2.34314 -5.91097,6.7875 -5.80274,12.54291 0.0972,5.16738 0.65528,7.97711 1.41696,9.78906 0.066,0.15699 0.1472,0.26957 0.21756,0.4129 -0.76701,1.09575 -1.70505,2.65388 -2.53628,4.76095 -1.75094,4.43842 -3.22233,11.34497 -2.5032,21.44468 0.44554,6.25743 3.17762,13.87267 5.7552,20.1228 1.60168,3.88378 2.92006,6.6884 3.8747,8.65529 l -28.53314,10.91768 v -21.23488 l 5.148,-5.1015 4.16667,-44.4593 c 0.36887,-3.93571 3.77661,-10.34191 7.97833,-15.78198 4.20172,-5.44007 9.39179,-10.13293 11.69386,-11.25048 14.09167,-6.84085 33.5592,-6.37118 33.5592,-6.37118 z m -8.90283,12.35893 h 8.90283 8.90282 c 0.55061,0 1.95568,0.44049 2.98586,1.3839 1.03019,0.94341 1.78542,2.22293 1.78542,4.12739 0,1.42525 -0.52447,1.63423 -1.45262,1.78232 -0.92815,0.1481 -1.99636,-0.2228 -2.49701,-1.18287 -0.63836,-1.22447 -2.14856,-1.69949 -3.37292,-1.06092 -1.22447,0.63836 -1.69949,2.14856 -1.06092,3.37292 1.56474,3.00065 4.83009,4.26949 7.71891,3.80856 2.65881,-0.42424 5.22023,-2.70248 5.61155,-5.87716 h 10.00765 c 3.13448,0 6.73433,2.67312 6.60994,9.28883 -0.0526,2.7992 -0.27731,4.67526 -0.52193,5.98104 -4.49115,-3.7261 -7.78928,-4.48035 -9.76117,-4.48035 -4.32672,0 -7.19414,1.63685 -10.31771,2.39262 -3.12357,0.75577 -7.65523,0.68429 -14.63787,-1.72186 -6.98265,2.40615 -11.5143,2.47763 -14.63786,1.72186 -3.12358,-0.75577 -5.991,-2.39262 -10.31772,-2.39262 -1.9719,0 -5.27001,0.75425 -9.76117,4.48035 -0.24462,-1.30578 -0.46929,-3.18184 -0.52192,-5.98104 -0.1244,-6.61571 3.47545,-9.28883 6.60993,-9.28883 h 10.00766 c 0.39131,3.17468 2.95273,5.45292 5.61154,5.87716 2.88881,0.46093 6.15416,-0.80791 7.7189,-3.80856 0.63858,-1.22436 0.16355,-2.73456 -1.06092,-3.37292 -1.22436,-0.63857 -2.73456,-0.16355 -3.37292,1.06092 -0.50064,0.96007 -1.56886,1.33097 -2.49701,1.18287 -0.92813,-0.14809 -1.45261,-0.35707 -1.45261,-1.78232 0,-1.90446 0.75524,-3.18398 1.78541,-4.12739 1.03018,-0.94341 2.43525,-1.3839 2.98586,-1.3839 z m -16.05276,22.14387 c 2.97966,0 5.27275,1.31585 9.14209,2.25206 3.86931,0.93621 8.16245,1.32958 15.8135,-1.3069 7.65103,2.63648 11.94418,2.24311 15.8135,1.3069 3.86933,-0.93621 6.16241,-2.25206 9.14207,-2.25206 10.91251,0 10.71478,16.89802 7.13394,24.39748 -1.34111,2.80871 -2.74922,3.64059 -3.15433,3.66902 -0.20256,0.0142 -0.41813,0.004 -0.93328,-0.44338 -0.51514,-0.44725 -1.21428,-1.36084 -1.88412,-2.80086 -2.42824,-4.68212 -3.91325,-10.52436 -8.02742,-14.19242 -1.32741,-1.13118 -3.18345,-1.94656 -5.14336,-1.6707 -8.77961,1.90503 -17.11533,1.28238 -25.89402,0 -1.95988,-0.27586 -3.81595,0.53952 -5.14336,1.6707 -4.11417,3.66806 -5.59918,9.5103 -8.02741,14.19242 -0.66985,1.44002 -1.36898,2.35361 -1.88413,2.80086 -0.51514,0.44725 -0.73072,0.45759 -0.93327,0.44338 -0.40511,-0.0284 -1.81323,-0.86031 -3.15433,-3.66902 -3.58084,-7.49946 -3.77858,-24.39748 7.13393,-24.39748 z m 11.26134,13.90768 c 2.74129,3.27401 0.62984,12.78626 2.31457,14.54175 0.66067,0.6884 2.59842,0.92677 3.70572,0.72347 2.41951,-0.44424 12.92968,-0.444 15.34791,0 1.1073,0.2033 3.04505,-0.0351 3.70572,-0.72347 1.68472,-1.75547 -0.4267,-11.26777 2.31459,-14.54175 0.48708,-0.0549 1.73159,0.89742 3.05562,2.944 0.096,0.15422 0.19211,0.29835 0.28784,0.46199 1.54448,2.63994 3.03323,6.36431 4.54649,9.6175 0.87265,1.87599 1.87508,3.36932 3.13986,4.46743 1.26479,1.09811 2.90712,1.7718 4.56096,1.65571 7.04884,-0.49479 8.73787,-4.55163 8.86922,-5.30458 0.37424,2.22633 -0.43534,6.60234 -2.4107,9.65419 -1.40475,2.17029 -4.00204,3.47867 -9.00255,3.56205 -2.96076,0.0494 -7.02197,-1.25648 -11.58895,-2.72799 -4.56698,-1.47151 -9.6792,-3.02359 -15.15205,-3.02359 -5.47286,0 -10.58507,1.55208 -15.15206,3.02359 -4.56697,1.47151 -8.6282,2.77737 -11.58895,2.72799 -5.00052,-0.0834 -7.5978,-1.39176 -9.00255,-3.56205 -1.97535,-3.05185 -2.78495,-7.42786 -2.41071,-9.65419 0.13137,0.75295 1.8204,4.80979 8.86923,5.30458 1.65384,0.11609 3.29617,-0.5576 4.56096,-1.65571 1.26479,-1.09811 2.26721,-2.59144 3.13986,-4.46743 1.51326,-3.25319 3.00202,-6.97756 4.54649,-9.6175 0.0957,-0.16364 0.1918,-0.30777 0.28784,-0.46199 1.32403,-2.04658 2.56856,-2.99885 3.05564,-2.944 z m 13.69425,26.34309 c 4.48362,0 9.10982,1.29326 13.61881,2.74609 4.50898,1.45282 8.86128,3.04074 13.2059,2.96829 3.14346,-0.0524 5.79207,-0.66679 7.97006,-1.68362 -0.50102,1.34365 -1.01219,2.68226 -1.52911,3.93568 -1.70707,4.13934 -3.05708,6.96639 -3.93309,8.75192 -11.66467,4.61301 -19.1312,4.35684 -29.33258,4.35684 -10.20137,0 -17.66791,0.25617 -29.33257,-4.35684 -0.87602,-1.78553 -2.22602,-4.61258 -3.9331,-8.75192 -0.51691,-1.25342 -1.02807,-2.59203 -1.5291,-3.93568 2.17798,1.01683 4.8266,1.6312 7.97005,1.68362 4.34462,0.0725 8.69692,-1.51547 13.20591,-2.96829 4.509,-1.45283 9.1352,-2.74609 13.61882,-2.74609 z" /><path
       id="rect32"
       style="display:inline;fill:#000000;stroke:none;stroke-width:3.53552;stroke-linecap:round;stroke-linejoin:round"
       d="m 230.72008,393.81219 c -2.04251,0.007 -4.10334,0.22291 -6.08076,0.68523 -5.27314,1.23286 -9.89538,4.07004 -12.68398,9.31416 -2.22405,4.18245 -3.31564,10.07756 -2.21279,18.19166 1.03625,-1.57618 2.15488,-3.12724 3.31453,-4.62866 1.09769,-1.42121 2.21816,-2.78253 3.34346,-4.06229 0.63118,-3.99815 2.67221,-7.68234 5.98775,-10.06346 2.223,-1.5965 4.99695,-2.54202 8.1163,-2.63602 1.64501,-0.0496 3.38611,0.13827 5.19297,0.5917 3.68993,-1.07364 7.32975,-1.78487 10.7213,-2.29237 -1.32936,-1.30444 -3.4152,-2.62668 -6.1128,-3.56102 -2.82874,-0.97977 -6.18176,-1.55011 -9.58598,-1.53893 z m 63.09382,0 c -3.4042,-0.0112 -6.75723,0.55916 -9.58598,1.53893 -2.6976,0.93434 -4.78343,2.25658 -6.1128,3.56102 3.39156,0.5075 7.03138,1.21873 10.72131,2.29237 1.80686,-0.45343 3.54796,-0.64127 5.19297,-0.5917 3.11935,0.094 5.8933,1.03952 8.1163,2.63602 3.31554,2.38112 5.35657,6.06531 5.98775,10.06346 1.1253,1.27976 2.24577,2.64108 3.34346,4.06229 1.15965,1.50142 2.27827,3.05248 3.31454,4.62866 1.10285,-8.1141 0.0113,-14.00921 -2.2128,-18.19166 -2.7886,-5.24412 -7.41083,-8.0813 -12.68398,-9.31416 -1.97741,-0.46232 -4.03824,-0.67852 -6.08077,-0.68523 z m -31.5469,8.99687 c 0,0 -19.46753,-0.46966 -33.5592,6.37119 -2.30207,1.11754 -7.49213,5.8104 -11.69386,11.25047 -4.20172,5.44007 -7.60946,11.84628 -7.97832,15.78199 l -4.16667,44.4593 -7.83518,7.37526 v 21.23487 l 31.22031,-13.19144 c -0.95464,-1.96689 -2.27301,-4.7715 -3.8747,-8.65528 -2.57757,-6.25014 -5.30965,-13.86538 -5.7552,-20.12281 -0.71913,-10.09971 0.75227,-17.00626 2.50321,-21.44468 0.83122,-2.10707 1.76927,-3.6652 2.53628,-4.76095 -0.0704,-0.14333 -0.15157,-0.25591 -0.21756,-0.41289 -0.76169,-1.81196 -1.31981,-4.62169 -1.41697,-9.78907 -0.10822,-5.75541 2.34484,-10.19977 5.80274,-12.54291 0.38515,-4.72282 3.87668,-7.88787 7.5582,-7.92561 3.22844,-0.0331 6.34478,2.35959 7.32669,6.08542 h 1.71359 c 0.62007,-1.46656 1.53303,-2.70622 2.57142,-3.65714 1.91326,-1.75212 4.14408,-2.697 6.3624,-2.697 h 8.90282 8.90282 c 2.21832,0 4.44913,0.94488 6.36239,2.697 1.0384,0.95092 1.95136,2.19058 2.57143,3.65714 h 1.71358 c 0.98191,-3.72583 4.09826,-6.11851 7.32668,-6.08542 3.68152,0.0377 7.17306,3.20279 7.5582,7.92561 3.4579,2.34314 5.91097,6.7875 5.80275,12.54291 -0.0972,5.16738 -0.65529,7.97711 -1.41697,9.78907 -0.066,0.15698 -0.1472,0.26956 -0.21756,0.41289 0.76701,1.09575 1.70505,2.65388 2.53628,4.76095 1.75094,4.43842 3.22234,11.34497 2.50321,21.44468 -0.44555,6.25743 -3.17763,13.87267 -5.75521,20.12281 -1.60168,3.88378 -2.92005,6.68839 -3.8747,8.65528 l 31.22032,13.19144 v -21.23487 l -7.83518,-7.37526 -4.16667,-44.4593 c -0.36887,-3.93571 -3.7766,-10.34192 -7.97832,-15.78199 -4.20173,-5.44007 -9.3918,-10.13293 -11.69386,-11.25047 -14.09167,-6.84085 -33.5592,-6.37119 -33.55919,-6.37119 z m -8.90282,12.35893 c -0.55062,0 -1.95568,0.44049 -2.98587,1.3839 -1.03018,0.94341 -1.78542,2.22293 -1.78542,4.1274 0,1.42524 0.52448,1.63422 1.45263,1.78232 0.92815,0.14809 1.99636,-0.22281 2.497,-1.18288 0.63836,-1.22447 2.14856,-1.69948 3.37292,-1.06092 1.22447,0.63837 1.69949,2.14857 1.06092,3.37293 -1.56474,3.00064 -4.83009,4.26948 -7.71891,3.80855 -2.6588,-0.42423 -5.22023,-2.70248 -5.61154,-5.87716 h -10.00766 c -3.13448,0 -6.73433,2.67312 -6.60993,9.28884 0.0526,2.79919 0.2773,4.67525 0.52193,5.98103 4.49115,-3.7261 7.78926,-4.48035 9.76116,-4.48035 4.32672,0 7.19415,1.63685 10.31772,2.39262 3.12357,0.75577 7.65522,0.68429 14.63787,-1.72186 6.98264,2.40615 11.5143,2.47763 14.63786,1.72186 3.12357,-0.75577 5.99099,-2.39262 10.31771,-2.39262 1.97191,0 5.27002,0.75425 9.76117,4.48035 0.24463,-1.30578 0.46929,-3.18184 0.52193,-5.98103 0.1244,-6.61572 -3.47546,-9.28884 -6.60994,-9.28884 h -10.00764 c -0.39132,3.17468 -2.95274,5.45293 -5.61155,5.87716 -2.88882,0.46093 -6.15417,-0.80791 -7.71891,-3.80855 -0.63857,-1.22436 -0.16355,-2.73456 1.06092,-3.37293 1.22436,-0.63856 2.73456,-0.16355 3.37292,1.06092 0.50065,0.96007 1.56886,1.33097 2.49701,1.18288 0.92815,-0.1481 1.45262,-0.35708 1.45262,-1.78232 0,-1.90447 -0.75523,-3.18399 -1.78542,-4.1274 -1.03018,-0.94341 -2.43525,-1.3839 -2.98586,-1.3839 H 262.267 Z m -16.05277,22.14387 c -10.91251,0 -10.71477,16.89802 -7.13393,24.39748 1.3411,2.80871 2.74922,3.64059 3.15433,3.66903 0.20255,0.0142 0.41814,0.004 0.93328,-0.44339 0.51514,-0.44725 1.21427,-1.36084 1.88412,-2.80086 2.42823,-4.68212 3.91324,-10.52436 8.02741,-14.19242 1.32741,-1.13118 3.18347,-1.94656 5.14336,-1.67069 8.7787,1.28237 17.11442,1.90502 25.89403,0 1.9599,-0.27587 3.81595,0.53951 5.14336,1.67069 4.11417,3.66806 5.59917,9.5103 8.02742,14.19242 0.66983,1.44002 1.36897,2.35361 1.88412,2.80086 0.51513,0.44725 0.73072,0.45759 0.93327,0.44339 0.4051,-0.0284 1.81322,-0.86032 3.15433,-3.66903 3.58084,-7.49946 3.77857,-24.39748 -7.13394,-24.39748 -2.97965,0 -5.27274,1.31585 -9.14206,2.25206 -3.86933,0.93621 -8.16247,1.32958 -15.81351,-1.3069 -7.65105,2.63648 -11.94419,2.24311 -15.81351,1.3069 -3.86933,-0.93621 -6.16242,-2.25206 -9.14208,-2.25206 z m 11.26133,13.90768 c -0.48708,-0.0548 -1.7316,0.89742 -3.05563,2.94401 -0.096,0.15421 -0.1921,0.29835 -0.28784,0.46198 -1.54447,2.63995 -3.03323,6.36431 -4.54649,9.6175 -0.87265,1.876 -1.87507,3.36932 -3.13986,4.46743 -1.26479,1.09811 -2.90712,1.77181 -4.56096,1.65572 -7.04883,-0.4948 -8.73786,-4.55164 -8.86923,-5.30459 -0.37424,2.22633 0.43536,6.60234 2.41071,9.65419 1.40476,2.17029 4.00203,3.47867 9.00255,3.56206 2.96075,0.0494 7.02198,-1.25649 11.58896,-2.728 4.56698,-1.47151 9.67919,-3.02359 15.15205,-3.02359 5.47284,0 10.58507,1.55208 15.15205,3.02359 4.56698,1.47151 8.62819,2.77737 11.58895,2.728 5.00051,-0.0834 7.5978,-1.39177 9.00256,-3.56206 1.97534,-3.05185 2.78494,-7.42786 2.41069,-9.65419 -0.13136,0.75295 -1.82039,4.80979 -8.86922,5.30459 -1.65384,0.11609 -3.29618,-0.55761 -4.56097,-1.65572 -1.26477,-1.09811 -2.2672,-2.59143 -3.13985,-4.46743 -1.51326,-3.25319 -3.00201,-6.97755 -4.54649,-9.6175 -0.0957,-0.16363 -0.1918,-0.30777 -0.28784,-0.46198 -1.32403,-2.04659 -2.56854,-2.99886 -3.05563,-2.94401 -2.74129,3.27399 -0.62986,12.78628 -2.31458,14.54175 -0.66067,0.68841 -2.59842,0.92677 -3.70572,0.72347 -2.41823,-0.444 -12.9284,-0.44423 -15.34791,0 -1.1073,0.2033 -3.04505,-0.0351 -3.70572,-0.72347 -1.68474,-1.75549 0.42672,-11.26774 -2.31458,-14.54175 z m 13.69426,26.3431 c -4.48361,0 -9.10982,1.29326 -13.6188,2.74608 -4.50901,1.45283 -8.8613,3.04074 -13.20593,2.9683 -3.14345,-0.0524 -5.79207,-0.6668 -7.97005,-1.68362 0.50103,1.34365 1.01219,2.68225 1.5291,3.93567 1.70708,4.13934 3.05709,6.96639 3.9331,8.75192 11.66466,4.61301 19.13121,4.35685 29.33258,4.35685 10.20136,0 17.66791,0.25616 29.33258,-4.35685 0.876,-1.78553 2.22602,-4.61258 3.93309,-8.75192 0.51691,-1.25342 1.02807,-2.59202 1.52911,-3.93567 -2.178,1.01682 -4.82661,1.63119 -7.97007,1.68362 -4.34462,0.0725 -8.69692,-1.51547 -13.20591,-2.9683 -4.50899,-1.45282 -9.13518,-2.74608 -13.6188,-2.74608 z m -67.73334,42.56329 v 0.14624 h 135.46667 v -0.14624 H 262.267 Z" /><path
       id="path4"
       style="display:inline;fill:#000000;stroke:none;stroke-width:2.5;stroke-linecap:round;stroke-linejoin:round"
       d="m 374.56662,261.38278 v 0.81545 a 7.14375,7.14375 0 0 1 -7.14376,7.14375 h -0.81545 a 7.14375,7.14375 0 0 0 -7.14375,7.14375 v 61.11255 a 7.14375,7.14375 0 0 0 7.14375,7.14375 h 0.81545 a 7.14375,7.14375 0 0 1 7.14376,7.14375 v 0.81546 a 7.14375,7.14375 0 0 0 7.14375,7.14375 h 61.11255 a 7.14375,7.14375 0 0 0 7.14375,-7.14375 v -0.81546 a 7.14375,7.14375 0 0 1 7.14375,-7.14375 h 0.81545 a 7.14375,7.14375 0 0 0 7.14375,-7.14375 v -0.81855 a 7.14375,7.14375 0 0 0 -7.14375,-7.14375 H 397.004 a 7.14375,7.14375 0 0 1 -7.14375,-7.14375 v -0.87592 a 7.14375,7.14375 0 0 1 7.14375,-7.14375 h 60.92187 a 7.14375,7.14375 0 0 0 7.14375,-7.14375 v -30.84308 a 7.14375,7.14375 0 0 0 -7.14375,-7.14375 h -0.81545 a 7.14375,7.14375 0 0 1 -7.14375,-7.14375 v -0.81545 a 7.14375,7.14375 0 0 0 -7.14375,-7.14375 h -61.11255 a 7.14375,7.14375 0 0 0 -7.14375,7.14375 z m 22.92625,22.11131 h 31.36552 a 7.14375,7.14375 0 0 1 7.14375,7.14375 v 2.66909 a 7.14375,7.14375 0 0 1 -7.14375,7.14375 h -31.36552 a 7.14375,7.14375 0 0 1 -7.14376,-7.14375 v -2.66909 a 7.14375,7.14375 0 0 1 7.14376,-7.14375 z" /><path
       id="rect43-3"
       style="display:inline;fill:#000000;stroke:none;stroke-width:2.75161;stroke-linecap:round;stroke-linejoin:round"
       d="m 390.53944,399.05307 a 4.582718,4.582718 0 0 0 -2.29134,0.61391 l -12.50776,7.22126 a 4.5827167,4.5827167 0 0 0 -2.29133,3.96876 v 12.0003 l -7.06882,12.24369 1.48104,-0.85524 a 4.582718,4.582718 0 0 1 4.58319,0 l 12.50776,7.22178 a 4.5827177,4.5827177 0 0 1 2.29133,3.96875 v 3.13728 l 7.67137,-13.28705 8.32404,-4.80591 h 19.24947 l 10.40815,6.00894 a 4.5827172,4.5827172 0 0 0 4.58267,0 l 12.50776,-7.22126 a 4.582718,4.582718 0 0 0 2.29133,-3.96875 V 410.857 a 4.5827177,4.5827177 0 0 0 -2.29133,-3.96876 l -12.50776,-7.22126 a 4.582718,4.582718 0 0 0 -4.58267,0 l -10.40815,6.00894 h -19.24947 l -10.40815,-6.00894 a 4.582718,4.582718 0 0 0 -2.29133,-0.61391 z m 64.58985,29.42766 v 2.83135 a 4.582718,4.582718 0 0 1 -2.29133,3.96875 l -12.50777,7.22126 a 4.5827172,4.5827172 0 0 1 -4.58266,0 l -1.74718,-1.00872 2.23862,3.87728 h -41.55353 l -5.41569,9.38031 c -0.81863,1.41789 -0.81863,3.16477 0,4.58266 l 5.41569,9.38031 h 48.28749 l 11.6737,6.73964 a 4.5827172,4.5827172 0 0 0 4.58267,0 l 12.50777,-7.22127 a 4.582718,4.582718 0 0 0 2.29133,-3.96875 v -14.44253 a 4.5827177,4.5827177 0 0 0 -2.29133,-3.96875 l -9.86762,-5.69681 z m -87.53419,9.53636 a 4.582718,4.582718 0 0 0 -2.29133,0.61392 l -12.50777,7.22126 a 4.5827167,4.5827167 0 0 0 -2.29133,3.96875 v 14.44253 a 4.5827188,4.5827188 0 0 0 2.29133,3.96875 l 10.92802,6.30918 9.72499,16.84445 v 11.84166 a 4.5827188,4.5827188 0 0 0 2.29133,3.96875 l 12.50776,7.22126 a 4.5827172,4.5827172 0 0 0 4.58267,0 l 10.40815,-6.00893 h 19.24947 l 10.40815,6.00893 a 4.5827172,4.5827172 0 0 0 4.58267,0 l 12.50776,-7.22126 a 4.582718,4.582718 0 0 0 2.29133,-3.96875 v -14.44253 a 4.5827177,4.5827177 0 0 0 -2.29133,-3.96875 l -12.50776,-7.22127 a 4.582718,4.582718 0 0 0 -4.58267,0 l -10.40815,6.00894 h -19.24947 l -8.46098,-4.88498 -10.09241,-17.48007 v -11.41791 a 4.5827177,4.5827177 0 0 0 -2.29133,-3.96875 l -12.50777,-7.22126 a 4.582718,4.582718 0 0 0 -2.29133,-0.61392 z" /><path
       id="rect24"
       style="display:inline;fill:#000000;stroke:none;stroke-width:2.5;stroke-linecap:round;stroke-linejoin:round"
       d="m 358.93733,137.78804 c -4.67601,0 -8.46667,3.79066 -8.46667,8.46667 v 21.57388 c 0,4.67601 3.79066,8.46667 8.46667,8.46667 h 21.57388 c 4.67601,0 8.46666,-3.79066 8.46666,-8.46667 v -0.0429 a 2.6458333,2.6458333 0 0 0 -2.64583,-2.64583 h -22.7428 a 2.6458333,2.6458333 0 0 1 -2.64583,-2.64583 v -0.41497 a 2.6458333,2.6458333 0 0 1 2.64583,-2.64582 h 22.7428 a 2.6458333,2.6458333 0 0 0 2.64583,-2.64584 v -10.5327 c 0,-4.67601 -3.79065,-8.46667 -8.46666,-8.46667 z m 37.25095,0 c -1.7535,0 -3.175,1.42151 -3.175,3.175 v 14.25597 c 0,2.04572 0.74823,4.021 2.10375,5.55315 l 11.62979,13.14494 c 1.3378,1.51213 3.25978,2.37815 5.27875,2.37815 h 0.36691 c 2.01897,0 3.94095,-0.86602 5.27874,-2.37815 l 11.74501,-13.27516 c 1.35553,-1.53217 2.10376,-3.50743 2.10376,-5.55315 v -14.12574 c 0,-1.7535 -1.42149,-3.17501 -3.175,-3.17501 H 427.251 c -1.95777,0 -3.70565,1.09868 -4.70049,2.78486 l -8.816,14.94274 c -0.69806,1.18317 -2.35291,1.18317 -3.05097,0 l -8.81601,-14.94274 c -0.99484,-1.68618 -2.74272,-2.78486 -4.70049,-2.78486 z m 47.83378,0 c -4.676,0 -8.46666,3.79066 -8.46666,8.46667 v 21.57388 c 0,4.67601 3.79066,8.46667 8.46666,8.46667 h 21.57387 c 4.67602,0 8.46667,-3.79066 8.46667,-8.46667 v -21.57388 c 0,-4.67601 -3.79065,-8.46667 -8.46667,-8.46667 z m 5.18935,10.54923 h 11.88661 a 2.6458333,2.6458333 0 0 1 2.64583,2.64583 v 11.59825 a 2.6458333,2.6458333 0 0 1 -2.64583,2.64585 h -11.88661 a 2.6458333,2.6458333 0 0 1 -2.64584,-2.64585 V 150.9831 a 2.6458333,2.6458333 0 0 1 2.64584,-2.64583 z m -85.62217,0.0904 h 11.42049 a 2.6458333,2.6458333 0 0 1 2.64584,2.64583 v 0.25166 a 2.6458333,2.6458333 0 0 1 -2.64584,2.64584 h -11.42049 a 2.6458333,2.6458333 0 0 1 -2.64583,-2.64584 v -0.25166 a 2.6458333,2.6458333 0 0 1 2.64583,-2.64583 z" /><path
       id="path25"
       style="display:inline;fill:#000000;stroke:none;stroke-width:0.264583px;stroke-linecap:butt;stroke-linejoin:miter;stroke-opacity:1"
       d="m 566.06709,90.58406 5.29838,72.38731 8.73331,-19.18384 z m -2.78949,9.83351 -11.41946,40.25284 -40.41356,-3.29644 13.36714,5.00589 29.92583,2.4412 9.37204,-33.03623 z m -64.59193,35.91564 42.82581,33.76331 29.37908,-6.7231 z m 85.26714,7.46001 -1.78645,3.90053 22.71955,0.0357 10.72906,-3.88555 z m 41.89512,0.0672 -54.08041,19.58588 15.34685,7.67343 z m -54.56565,19.77295 -51.41444,59.86663 43.7875,-34.76739 37.41838,33.23053 z m -26.73326,9.3586 -4.65295,1.0759 -15.90549,39.25962 7.9742,-9.28522 z m 39.11957,0.31781 4.08502,14.87868 8.75141,17.13435 -8.13439,-29.6602 z" /><path
       id="path104"
       style="display:inline;fill:#000000;stroke:none;stroke-width:0.309996px;stroke-linecap:butt;stroke-linejoin:miter;stroke-opacity:1"
       d="m 711.41728,118.90408 c -0.99378,20.35434 -2.23633,40.77548 -6.53572,60.73453 -0.0862,0.39996 -0.4881,0.74854 -0.89594,0.78121 -1.61557,0.12939 -3.18915,0.28245 -4.71247,0.4608 -0.40639,0.0476 -0.96785,-0.14815 -1.25475,-0.43985 -6.25068,-6.35527 -15.90308,-16.00059 -24.33833,-29.29415 -0.2192,-0.34545 -0.68705,-0.46941 -1.0473,-0.27543 l -0.7104,0.38252 c -0.36025,0.19398 -0.47444,0.63121 -0.25765,0.97821 6.8675,10.99331 11.01616,21.97624 12.66682,30.63757 0.0766,0.40192 -0.18756,0.81013 -0.58336,0.91374 -1.82265,0.47706 -3.54362,0.97897 -5.16111,1.4961 -0.38971,0.1246 -1.01417,0.10893 -1.39507,-0.0404 -6.1816,-2.42399 -13.37517,-5.6892 -18.38991,-8.75346 -0.34912,-0.21333 -0.80229,-0.10778 -1.01564,0.24134 l -0.0799,0.1307 c -0.21334,0.34913 -0.10529,0.80868 0.23034,1.04262 3.4007,2.37038 7.66307,7.0087 10.62419,10.46074 0.26638,0.31055 0.17808,0.69891 -0.19386,0.86936 -1.32826,0.6087 -2.51803,1.19356 -3.58253,1.74151 -0.3638,0.18725 -0.98822,0.36359 -1.39646,0.39088 -5.60408,0.37469 -11.20222,0.80837 -16.79273,1.30855 -0.4075,0.0365 -0.73783,0.39809 -0.73783,0.80725 v 0.32594 c 0,0.40915 0.3315,0.75204 0.74042,0.76583 21.63971,0.73001 43.3436,1.39221 64.92818,1.34933 0.40913,-7.9e-4 1.07248,-7.9e-4 1.48163,0 21.58458,0.0429 43.28847,-0.61932 64.92819,-1.34933 0.40889,-0.0138 0.74037,-0.35668 0.74037,-0.76583 v -0.32594 c 0,-0.40916 -0.33032,-0.77078 -0.73786,-0.80725 -5.59051,-0.50018 -11.18863,-0.93386 -16.79273,-1.30855 -0.40824,-0.0273 -1.03269,-0.20364 -1.39646,-0.3909 -1.0645,-0.54794 -2.25431,-1.1328 -3.58254,-1.7415 -0.37194,-0.17045 -0.46021,-0.55881 -0.19383,-0.86936 2.96114,-3.45206 7.22349,-8.09037 10.6242,-10.46074 0.33562,-0.23394 0.44367,-0.69349 0.23032,-1.04261 l -0.0799,-0.1307 c -0.21336,-0.34912 -0.66654,-0.45467 -1.01567,-0.24133 -5.01473,3.06426 -12.20832,6.32946 -18.38989,8.75345 -0.38091,0.14937 -1.00535,0.16504 -1.39508,0.0404 -1.6175,-0.51713 -3.33847,-1.01903 -5.1611,-1.4961 -0.39581,-0.1036 -0.65997,-0.51182 -0.58337,-0.91373 1.65066,-8.66134 5.79932,-19.64427 12.66683,-30.63758 0.21678,-0.347 0.1026,-0.78422 -0.25765,-0.9782 l -0.71041,-0.38253 c -0.36024,-0.19398 -0.82813,-0.07 -1.04735,0.27548 -8.43525,13.29356 -18.08764,22.93888 -24.33831,29.29414 -0.28688,0.29168 -0.84834,0.48739 -1.25471,0.43981 -1.52332,-0.17835 -3.0969,-0.3314 -4.71247,-0.4608 -0.40784,-0.0327 -0.80707,-0.38183 -0.89015,-0.78246 -4.13163,-19.924 -5.75528,-40.34588 -6.54906,-60.73296 -0.0159,-0.40884 -0.36015,-0.74198 -0.7693,-0.74183 -0.0486,1e-5 -0.0972,5e-5 -0.14581,1e-4 -0.40915,4.2e-4 -0.7569,0.33274 -0.77687,0.74141 z m 1.57664,63.84832 c 10.38016,0.17076 17.39892,2.43612 25.45551,7.09978 0.3541,0.20497 0.30808,0.36176 -0.1008,0.34725 -7.70243,-0.27339 -15.41639,-0.4225 -23.1405,-0.44559 -0.40914,-0.001 -0.74083,-0.003 -0.74083,-0.005 -0.98037,-5.3e-4 -1.21989,2.7e-4 -1.45942,0.001 -0.40915,0.001 -1.0725,0.001 -1.48166,7e-5 -0.23953,-5.3e-4 -0.47904,-0.002 -0.71859,-0.002 -0.40914,-7.9e-4 -0.74082,0.002 -0.74082,0.004 -8.46494,0.0249 -16.1789,0.17403 -23.88133,0.44742 -0.40889,0.0145 -0.4549,-0.14228 -0.1008,-0.34725 8.04927,-4.65941 15.06312,-6.92506 25.42766,-7.09951 0.4091,-0.007 1.07247,-0.007 1.48157,-2.6e-4 z" /><path
       id="path24"
       style="display:inline;fill:#000000;stroke:none;stroke-width:3.06094;stroke-linecap:round;stroke-linejoin:round"
       d="m 712.29091,275.23303 c -0.0136,0.31304 -4.68845,33.47901 -4.78627,34.17311 a 36.904687,34.017966 0 0 0 -11.36726,3.17241 l -24.78867,-22.34696 17.06562,26.96735 a 36.904687,34.017966 0 0 0 -5.54229,5.51388 l -30.2302,-5.53197 25.34315,13.61571 a 36.904687,34.017966 0 0 0 -1.11362,3.10937 l -27.8567,4.9444 H 775.5196 l -27.76471,-4.99504 a 36.904687,34.017966 0 0 0 -1.08882,-3.09594 l 25.2739,-13.5785 -30.13304,5.5144 a 36.904687,34.017966 0 0 0 -5.6322,-5.50768 l 17.05839,-26.95598 -24.75354,22.31544 a 36.904687,34.017966 0 0 0 -11.40498,-3.16002 z m 0,40.58098 a 25.883483,27.294467 0 0 1 23.40529,15.8719 l -6.51847,-1.17254 -5.16764,2.35128 -11.57552,-5.27099 -23.59907,4.18889 a 25.883483,27.294467 0 0 1 23.45541,-15.96854 z" /><path
       id="rect4"
       style="display:inline;fill:#000000;stroke:none;stroke-width:2.25464;stroke-linecap:round;stroke-linejoin:round"
       d="m 860.55144,91.580774 a 10.968908,10.968908 0 0 0 -6.04045,3.07733 L 799.8833,149.28578 a 10.968908,10.968908 0 0 0 1e-5,15.51223 l 54.62768,54.62768 a 10.968908,10.968908 0 0 0 15.51223,0 l 54.62768,-54.62768 a 10.968908,10.968908 0 0 0 0,-15.51223 L 870.02322,94.658106 a 10.968908,10.968908 0 0 0 -9.47178,-3.077332 z m 1.60249,11.468036 h 0.22634 c 1.5368,-3e-5 2.80981,1.21048 2.8882,2.74453 l 1.53479,30.18369 c 2.38255,0.51356 4.66224,1.4237 6.73964,2.69958 -0.009,-0.005 0.23556,0.0247 0.21549,0.0372 3.70592,-2.30767 7.23895,-5.52179 11.23601,-8.06256 -0.003,0.002 -0.007,0.004 -0.01,0.006 l 0.0692,-0.0465 c -0.0203,0.0129 -0.0391,0.0279 -0.0594,0.0408 1.01359,-0.71721 2.39867,-0.60065 3.27732,0.27802 l 0.10845,0.10807 c 0.88137,0.88135 0.99643,2.27272 0.27182,3.28713 -2.69828,3.77704 -5.44851,7.52749 -8.0424,11.31301 0.0364,-0.0531 0.0234,-0.0514 0.018,-0.0161 -5.3e-4,0.004 -10e-4,0.008 -0.002,0.0129 -1e-5,6e-5 0.006,0.13183 0.006,0.13177 1.27584,2.07734 2.18651,4.35703 2.70009,6.73964 l 30.18318,1.53479 c 1.53479,0.0784 2.74508,1.35099 2.74505,2.8882 l -5.3e-4,0.22841 c 3e-5,1.53451 -1.20957,2.80771 -2.74402,2.88613 l -30.18359,1.53429 c -0.51358,2.3829 -1.42419,4.66272 -2.70009,6.74015 0.005,-0.009 -0.0242,0.23557 -0.0367,0.2155 2.30827,3.70689 5.52354,7.24076 8.06462,11.2391 -0.003,-0.004 -0.005,-0.009 -0.008,-0.0134 l 0.0465,0.0698 c -0.0122,-0.0193 -0.0265,-0.037 -0.0388,-0.0563 0.71443,1.01318 0.59866,2.39602 -0.27956,3.27422 l -0.10852,0.10852 c -0.88192,0.88194 -2.27335,0.99635 -3.28766,0.27182 -3.77703,-2.69827 -7.52696,-5.4485 -11.31249,-8.0424 0.0533,0.0365 0.0515,0.0234 0.016,0.0181 -0.004,-5.3e-4 -0.008,-0.001 -0.0129,-0.002 -6e-5,-1e-5 -0.13183,0.006 -0.13177,0.006 -2.07744,1.2759 -4.35727,2.1865 -6.74016,2.70009 l -1.53479,30.18318 c -0.0784,1.53482 -1.35124,2.74508 -2.88768,2.74505 h -0.22427 c -1.53909,3e-5 -2.81186,-1.21063 -2.89027,-2.74505 l -1.53526,-30.1992 c -2.36986,-0.51618 -4.63707,-1.42544 -6.70346,-2.69596 -0.007,-0.004 -0.24053,-0.0862 -0.36949,-0.0889 -0.009,-1.7e-4 -0.0167,-5.3e-4 -0.0243,-5.3e-4 -0.007,1.3e-4 -0.0128,2.2e-4 -0.0186,5.3e-4 -0.005,2.4e-4 -0.009,8e-4 -0.0129,0.001 -1.38532,0.7192 -3.38625,2.34331 -5.37693,3.99253 -1.88075,1.55813 -4.10584,3.40291 -5.90042,4.2602 l 0.22531,-0.13281 c -1.01442,0.72461 -2.40577,0.60957 -3.28714,-0.27182 l -0.10806,-0.10845 c -0.88137,-0.88136 -0.99695,-2.27273 -0.27234,-3.28714 2.69153,-3.76759 5.38721,-7.52927 8.06669,-11.29854 2.7e-4,-0.002 0.002,-0.004 0.002,-0.007 5.3e-4,-0.003 5.3e-4,-0.007 0.001,-0.0114 5.3e-4,-0.004 10e-4,-0.01 0.002,-0.0145 2.7e-4,-0.006 5.3e-4,-0.0112 5.3e-4,-0.017 8e-4,-0.0588 -0.0324,-0.1202 -0.002,-0.0713 -1.28972,-2.08161 -2.21152,-4.3686 -2.73316,-6.76083 l -30.19977,-1.53589 c -1.53442,-0.0784 -2.74507,-1.35085 -2.74505,-2.88768 v -0.22634 c -10e-6,-0.76841 0.29918,-1.46999 0.7953,-1.99213 0.4961,-0.52212 1.18202,-0.85686 1.94924,-0.89607 l 30.20022,-1.53531 c 0.52165,-2.39222 1.44345,-4.67869 2.73317,-6.76031 -4e-5,6e-5 0.007,-0.13635 0.007,-0.13642 -5.3e-4,-0.005 -5.3e-4,-0.008 -10e-4,-0.0124 -5.3e-4,-0.004 -0.001,-0.007 -0.002,-0.01 -0.005,-0.0261 -0.0122,-0.0199 0.0217,0.03 -2.54359,-3.73552 -5.47234,-7.43338 -8.09615,-11.29182 -0.7246,-1.01441 -0.60905,-2.40577 0.27234,-3.28714 l 0.108,-0.108 c 0.88135,-0.88138 2.27272,-0.99694 3.28714,-0.27234 3.78922,2.70698 7.53933,5.48674 11.33832,8.05532 -0.0534,-0.0361 -0.051,-0.0224 -0.0139,-0.017 0.004,5.3e-4 0.009,0.001 0.0134,0.002 7e-5,1e-5 0.13958,-0.008 0.13953,-0.008 2.06645,-1.27055 4.33353,-2.17926 6.70347,-2.69544 l 1.53533,-30.20031 c 0.0784,-1.53484 1.35176,-2.74456 2.88819,-2.74453 z" /><path
       id="rect2"
       style="display:inline;fill:#000000;stroke:none;stroke-width:2.45192;stroke-linecap:round;stroke-linejoin:round"
       d="m 858.52534,243.69486 -59.60538,59.60538 c -2.06652,2.06652 -2.06652,5.41702 0,7.48354 l 59.60538,59.60539 c 2.06653,2.06652 5.41703,2.06652 7.48355,0 l 59.60536,-59.60538 c 2.0665,-2.06653 2.0665,-5.41703 0,-7.48354 l -59.60536,-59.60539 c -2.06653,-2.06652 -5.41703,-2.06652 -7.48355,0 z m 3.74177,16.38103 c 0,0 0.88309,14.88756 8.13804,27.37814 13.94727,-3.71287 25.07234,-13.6224 25.07234,-13.6224 0,0 -9.90953,11.12507 -13.6224,25.07234 12.49058,7.25496 27.37816,8.13804 27.37816,8.13804 0,0 -14.88758,0.88309 -27.37816,8.13804 3.71287,13.94727 13.6224,25.07234 13.6224,25.07234 0,0 -11.12507,-9.90953 -25.07234,-13.6224 -7.25495,12.49058 -8.13804,27.37815 -8.13804,27.37815 0,0 -0.88308,-14.88757 -8.13803,-27.37815 -13.94728,3.71287 -25.07234,13.6224 -25.07234,13.6224 0,0 9.90953,-11.12507 13.62239,-25.07234 -12.49057,-7.25495 -27.37814,-8.13804 -27.37814,-8.13804 0,0 14.88757,-0.88308 27.37814,-8.13804 -3.71286,-13.94727 -13.62239,-25.07234 -13.62239,-25.07234 0,0 11.12506,9.90953 25.07234,13.6224 7.25495,-12.49058 8.13803,-27.37814 8.13803,-27.37814 z m -6.67969,30.66272 -9.57151,9.49865 -0.0522,13.48445 9.49864,9.5715 13.48445,0.0522 9.57151,-9.49864 0.0522,-13.48445 -9.49864,-9.57151 z m 6.67969,12.53102 c 3.36774,0 6.09782,1.68895 6.09782,3.77238 0,2.08343 -2.73008,3.77238 -6.09782,3.77238 -3.36773,0 -6.09782,-1.68895 -6.09782,-3.77238 10e-6,-2.08343 2.73009,-3.77238 6.09782,-3.77238 z"
       inkscape:label="Mitsuhama-new-svg"
       sodipodi:nodetypes="sssssssssccccccccccccccccccccccccccsssss" /></g></svg>
