<?xml version="1.0" encoding="UTF-8" standalone="no"?>
<svg
   viewBox="0 0 495.84708 495.84604"
   version="1.1"
   id="svg1"
   xml:space="preserve"
   width="495.84708"
   height="495.84604"
   xmlns="http://www.w3.org/2000/svg"
   xmlns:svg="http://www.w3.org/2000/svg"><defs
     id="defs1" /><!--! Font Awesome Free 6.7.2 by @fontawesome - https://fontawesome.com License - https://fontawesome.com/license/free (Icons: CC BY 4.0, Fonts: SIL OFL 1.1, Code: MIT License) Copyright 2024 Fonticons, Inc. --><g
     id="layer2"
     style="display:inline"
     transform="translate(-8.0764644,-8.077477)"><path
       id="rect4"
       style="display:inline;opacity:1;fill:#000000;stroke:none;stroke-width:8.22192;stroke-linecap:round;stroke-linejoin:round"
       d="m 164.37315,188.81758 a 40,40 0 0 0 -23.511,-7.64068 h -281.7243 a 40,40 0 0 0 -39.99962,39.99963 v 281.72429 a 40,40 0 0 0 39.99962,39.99962 h 281.7243 a 40,40 0 0 0 39.99962,-39.99962 V 221.17653 a 40,40 0 0 0 -16.48862,-32.35895 z m -25.43916,33.70346 0.58364,0.58364 c 3.96284,3.9627 4.124,10.36666 0.37044,14.52448 l -73.873638,81.78882 c 4.819349,7.46789 8.350857,15.69311 10.417651,24.33983 -0.0085,-0.0357 0.543693,0.67113 0.45972,0.65161 15.50654,3.60551 32.904667,4.42786 49.763007,8.18301 -0.0138,-0.002 -0.0261,-0.008 -0.04,-0.0107 l 0.29849,0.0586 c -0.0857,-0.0192 -0.17277,-0.0289 -0.25851,-0.048 4.46302,0.76427 7.734,4.63637 7.73395,9.16775 l 10e-4,0.55832 c 6e-5,4.54534 -3.29103,8.42978 -7.77526,9.17708 -16.69716,2.78167 -33.459715,5.36082 -49.90958,8.43352 0.230796,-0.0431 0.192673,-0.0722 0.08795,0.005 -0.01164,0.009 -0.02438,0.0189 -0.03731,0.0293 -1.9e-4,1.5e-4 -0.325188,0.35467 -0.325136,0.35445 -2.066726,8.64645 -5.596861,16.87307 -10.416318,24.34116 l 73.872304,81.78749 c 3.75536,4.15981 3.5948,10.56204 -0.36911,14.52581 l -0.5903,0.58764 c -3.9568,3.95695 -10.3589,4.12097 -14.51782,0.36645 L 42.622023,428.05177 c -7.468831,4.82019 -15.695646,8.35083 -24.342497,10.41765 0.03572,-0.009 -0.669796,0.54503 -0.650271,0.46106 -3.606462,15.51062 -4.427995,32.91385 -8.1856773,49.77633 0.00326,-0.0189 0.011505,-0.0357 0.014658,-0.0546 l -0.059963,0.29982 c 0.018256,-0.0813 0.027187,-0.16388 0.045306,-0.24518 -0.7703747,4.45478 -4.6346419,7.72201 -9.16374825,7.72196 h -0.5596589 c -4.54823035,5e-5 -8.43118405,-3.29285 -9.17840595,-7.7766 -2.7816686,-16.69712 -5.3594836,-33.45832 -8.4321946,-49.90825 0.04324,0.23151 0.07251,0.19314 -0.0053,0.0879 -0.0086,-0.0117 -0.01884,-0.0243 -0.02932,-0.0373 -1.54e-4,-1.9e-4 -0.354672,-0.32519 -0.354451,-0.32514 -8.646862,-2.06682 -16.873673,-5.59747 -24.342497,-10.41765 l -81.787483,73.87231 c -4.15993,3.75544 -10.56272,3.59413 -14.52448,-0.36777 l -0.57831,-0.57832 c -3.96874,-3.96858 -4.1289,-10.37232 -0.37444,-14.53114 l 73.912279,-81.83013 c -4.779884,-7.44191 -8.281474,-15.63271 -10.333702,-24.23723 -0.0069,-0.029 -0.397861,-0.84256 -0.723559,-1.18194 -0.02171,-0.0226 -0.04149,-0.0448 -0.0613,-0.064 -0.01783,-0.0172 -0.03358,-0.0325 -0.0493,-0.0466 -0.01272,-0.0115 -0.02498,-0.0213 -0.03598,-0.0306 -5.42668,-1.71765 -14.77417,-2.68933 -24.159948,-3.56982 -8.86744,-0.83188 -19.36198,-1.81255 -26.20003,-4.22943 l 0.92344,0.23853 c -4.48423,-0.7473 -7.77532,-4.63167 -7.77526,-9.17708 l 0.001,-0.55832 c -5e-5,-4.54534 3.2897,-8.43112 7.77393,-9.17841 16.65536,-2.77471 33.30626,-5.52349 49.934901,-8.33359 0.0069,-0.005 0.01599,-0.007 0.02398,-0.0133 0.01019,-0.007 0.02052,-0.0175 0.03198,-0.0267 0.01273,-0.0102 0.02769,-0.0214 0.04131,-0.0333 0.01513,-0.0133 0.02994,-0.0277 0.04531,-0.0426 0.153623,-0.14962 0.226521,-0.39341 0.178558,-0.18921 2.041979,-8.69328 5.56224,-16.96742 10.38567,-24.48108 l -73.912289,-81.8328 c -3.75447,-4.15882 -3.59513,-10.56171 0.36778,-14.52448 l 0.58364,-0.58364 c 1.98136,-1.98144 4.56194,-3.01905 7.18762,-3.08612 2.62557,-0.0671 5.25742,0.83843 7.33686,2.71568 l 81.832796,73.91495 c 7.51367,-4.82343 15.786473,-8.34235 24.479747,-10.38434 -2.25e-4,5e-5 0.370287,-0.33294 0.370441,-0.33313 0.01052,-0.0129 0.02068,-0.0231 0.02932,-0.0346 0.0078,-0.0104 0.01521,-0.0205 0.02132,-0.0293 0.05497,-0.0796 0.01969,-0.0828 -0.02132,0.13325 3.073489,-16.19121 5.05671,-33.2785 8.2403111,-49.99353 0.7472999,-4.48421 4.6330026,-7.77398 9.17840597,-7.77393 h 0.55699386 c 4.54533727,-5e-5 8.43110587,3.28972 9.17840597,7.77393 2.7906441,16.751 5.2927891,33.58885 8.4655071,50.00819 -0.04459,-0.23078 -0.07364,-0.18918 0.008,-0.0799 0.0091,0.0121 0.01971,0.0252 0.03065,0.0386 1.6e-4,2e-4 0.379985,0.33985 0.379769,0.33979 8.604749,2.05229 16.793806,5.55494 24.235895,10.33504 l 81.833088,-73.9151 c 4.15998,-3.75548 10.56272,-3.59146 14.52448,0.37044 z"
       transform="matrix(0.73286827,-0.73286827,0.73286827,0.73286827,-9.3266561,-9.3266561)" /></g></svg>
