<?xml version="1.0" encoding="UTF-8" standalone="no"?>
<svg
   viewBox="0 0 499.31238 365.40189"
   version="1.1"
   id="svg1"
   xml:space="preserve"
   width="499.31238"
   height="365.40189"
   xmlns="http://www.w3.org/2000/svg"
   xmlns:svg="http://www.w3.org/2000/svg"><defs
     id="defs1" /><!--! Font Awesome Free 6.7.2 by @fontawesome - https://fontawesome.com License - https://fontawesome.com/license/free (Icons: CC BY 4.0, Fonts: SIL OFL 1.1, Code: MIT License) Copyright 2024 Fonticons, Inc. --><g
     id="layer7"
     style="display:inline"
     transform="translate(-6.3438118,-73.299058)"><path
       id="path28"
       style="display:inline;opacity:1;fill:#1a1a1a;stroke:none;stroke-width:1px;stroke-linecap:butt;stroke-linejoin:miter;stroke-opacity:1"
       d="m 394.52101,73.316172 c -1.05047,-0.113369 -2.08164,0.342278 -2.70508,1.195312 l -96.35937,128.078126 7.57617,36.22265 93.79883,-160.548822 c 0.86284,-1.476745 0.48339,-3.365583 -0.88282,-4.394532 -0.41915,-0.306368 -0.91155,-0.497 -1.42773,-0.552734 z m -277.17578,0.01953 c -0.52386,0.06528 -1.02149,0.266618 -1.44336,0.583985 -1.33833,1.03367 -1.69975,2.900996 -0.84375,4.359375 l 89.58008,156.978518 27.67773,3.30078 1.80078,-14.99219 L 120.12062,74.497813 c -0.6529,-0.853025 -1.70948,-1.295437 -2.77539,-1.162111 z m 143.05469,16.333985 c -1.63635,0.0234 -2.94683,1.363536 -2.9336,3 l -0.98437,162.546873 c -50.83522,51.15007 -101.79852,102.42667 -152.67969,153.62109 -1.16041,1.16786 -1.13486,3.06115 0.0566,4.19727 l 1.29883,1.23828 c 1.25419,1.19533 3.18768,1.31169 4.57617,0.27539 l 146.26367,-109.125 v 0.084 l 146.18555,109.04297 c 1.389,1.0356 3.3224,0.91842 4.57617,-0.27735 l 1.29883,-1.23828 c 1.1935,-1.13741 1.22167,-3.03271 0.0625,-4.20508 L 256.5171,255.22827 287.39992,236.47633 263.88429,92.630625 C 263.60527,90.923189 262.13,89.669539 260.39992,89.669687 Z M 10.530773,211.83375 c -1.6395078,-0.28862 -3.2069957,0.79261 -3.5195318,2.42773 l -0.6074219,3.17969 c -0.3210301,1.67497 0.6744263,3.32198 2.3066406,3.81641 L 193.3296,277.14625 247.90578,254.96251 Z m 491.384767,1.36133 -236.86914,41.75991 42.75586,23.73227 195.39648,-57.45312 c 1.64772,-0.48358 2.68144,-2.11396 2.41602,-3.81055 l -0.2793,-1.77148 c -0.25502,-1.62959 -1.79415,-2.73538 -3.41992,-2.45703 z M 172.24757,282.4314 36.675304,328.95875 c -1.570554,0.53879 -2.411582,2.2444 -1.882813,3.81836 0.55839,1.59745 2.214579,2.53334 3.871094,2.1875 L 190.97218,305.11109 201.39406,293.3689 Z m 171.11914,1.23243 -24.48828,6.65429 10.48633,11.35743 143.9082,33.1914 c 1.65876,0.38291 3.3372,-0.55603 3.87891,-2.16992 0.49899,-1.5593 -0.35419,-3.22901 -1.91016,-3.73828 z m -87.55078,39.10156 1.20117,112.93555 c 0.0176,1.66171 1.36945,2.99965 3.03125,3 1.69099,-0.0213 3.10247,-1.29643 3.29493,-2.97657 l 12.83398,-100.70312 z" /></g></svg>
