<?xml version="1.0" encoding="UTF-8" standalone="no"?>
<svg
   viewBox="0 0 510.73615 377.74103"
   version="1.1"
   id="svg1"
   xml:space="preserve"
   width="510.73615"
   height="377.74103"
   xmlns="http://www.w3.org/2000/svg"
   xmlns:svg="http://www.w3.org/2000/svg"><defs
     id="defs1" /><!--! Font Awesome Free 6.7.2 by @fontawesome - https://fontawesome.com License - https://fontawesome.com/license/free (Icons: CC BY 4.0, Fonts: SIL OFL 1.1, Code: MIT License) Copyright 2024 Fonticons, Inc. --><g
     id="g5"
     style="display:inline;opacity:1;fill:#55d400"
     transform="translate(-0.63193082,-67.129484)"><path
       id="path48"
       style="display:inline;opacity:1;fill:#000000;stroke:none;stroke-width:1px;stroke-linecap:butt;stroke-linejoin:miter;stroke-opacity:1"
       d="m 117.97461,67.132233 c -0.3792,-0.0095 -0.76115,0.0055 -1.14453,0.04687 -1.50603,0.162612 -2.94337,0.719613 -4.16602,1.613282 l -0.0332,0.02344 -0.0312,0.02344 c -3.68322,2.773986 -4.69334,7.802008 -2.36719,11.783203 L 208.63086,237.27091 219.75,184.11661 124.7207,70.665436 c -1.59273,-2.179293 -4.09167,-3.466893 -6.74609,-3.533203 z m 276.05078,0 c -2.65442,0.06631 -5.15336,1.35391 -6.74609,3.533203 L 292.25,184.11661 l 11.11914,53.1543 98.39844,-156.648442 c 2.32615,-3.981195 1.31603,-9.009217 -2.36719,-11.783203 l -0.0312,-0.02344 -0.0332,-0.02344 c -1.22265,-0.893669 -2.65999,-1.45067 -4.16602,-1.613282 -0.38338,-0.04138 -0.76533,-0.05636 -1.14453,-0.04687 z M 260.38672,85.390046 c -3.72779,0.05331 -6.68834,3.082492 -6.6582,6.810547 l -0.97461,160.947267 c -50.47459,50.78717 -101.073,101.69558 -151.5918,152.52539 -2.660463,2.67754 -2.601002,6.99268 0.13086,9.59766 l 1.29883,1.23828 c 2.58991,2.46836 6.57663,2.70794 9.44336,0.56836 L 255.98242,309.68106 399.96484,417.0795 c 2.86815,2.13841 6.85497,1.89834 9.44336,-0.57031 l 1.29883,-1.23828 c 2.73199,-2.6036 2.7956,-6.91445 0.14453,-9.5957 L 262.60742,255.47599 291.58203,237.88224 267.65625,91.520905 c -0.57799,-3.536949 -3.63099,-6.131166 -7.21484,-6.130859 h -0.0274 z M 9.2460935,206.98771 c -4.09364,0.14005 -7.5781494,3.15625 -8.2246094,7.2871 l -0.27734378,1.76563 c -0.71054,4.54179 2.01539188,8.84015 6.41992188,10.13281 l 172.1914078,55.31641 63.9082,-26.875 -232.261717,-47.50781 c -0.58987,-0.10104 -1.1779295,-0.13894 -1.7558595,-0.11914 z m 493.5078165,0 c -0.57793,-0.0198 -1.16599,0.0181 -1.75586,0.11914 l -231.55469,47.50781 63.20117,26.875 172.19141,-55.31641 c 4.40453,-1.29266 7.13046,-5.59102 6.41992,-10.13281 l -0.27734,-1.76563 c -0.64646,-4.13085 -4.13097,-7.14705 -8.22461,-7.2871 z m -347.79102,81.20898 -120.015624,34.875 c -4.52115,1.48332 -6.991496,6.32091 -5.541016,10.85352 l 0.01367,0.0371 0.01172,0.0391 c 1.47749,4.40181 6.005137,6.93303 10.529297,5.88867 l 111.316403,-13.43167 19.42774,-33.29688 z m 202.07422,0 -15.74219,4.96484 19.42774,33.29688 111.3164,13.43164 c 4.52416,1.04436 9.05181,-1.48686 10.5293,-5.88867 l 0.0117,-0.0391 0.0137,-0.0371 c 1.45048,-4.53261 -1.01987,-9.3702 -5.54102,-10.85352 z m -101.25,37.52539 0.60156,110.53906 c 0.0506,4.77722 3.92161,8.60837 8.69922,8.60938 h 0.0371 l 0.0371,-0.002 c 4.56498,-0.0575 8.32555,-3.44983 8.85352,-7.98242 l 14.88671,-88.75976 z" /></g></svg>
