<?xml version="1.0" encoding="UTF-8" standalone="no"?>
<svg
   viewBox="0 0 472.03516 449.30951"
   version="1.1"
   id="svg1"
   xml:space="preserve"
   width="472.03516"
   height="449.30951"
   xmlns="http://www.w3.org/2000/svg"
   xmlns:svg="http://www.w3.org/2000/svg"><defs
     id="defs1" /><!--! Font Awesome Free 6.7.2 by @fontawesome - https://fontawesome.com License - https://fontawesome.com/license/free (Icons: CC BY 4.0, Fonts: SIL OFL 1.1, Code: MIT License) Copyright 2024 Fonticons, Inc. --><g
     id="layer5"
     style="display:inline"
     transform="translate(-19.982422,-19.982422)"><path
       id="path22-1"
       style="display:inline;fill:#000000;stroke:none;stroke-width:9.16177;stroke-linecap:round;stroke-linejoin:round"
       d="M 256,19.982422 C 125.65128,19.982875 19.982875,125.65128 19.982422,256 19.982608,309.5928 37.872356,358.99146 67.96875,398.61133 63.577375,216.94392 195.37175,195.34727 260.13867,220.92188 325.07613,246.56382 357.8418,343.98692 295,398.27148 260.4544,428.11297 189.75765,424.71457 174.29883,372.99805 160.7256,327.58965 215.0264,287.28608 244.45312,317.875 c 20.59222,21.40549 -0.58979,50.33113 -28.32421,46.84375 17.63966,24.48113 84.0512,-5.95541 43.13867,-61.44141 -29.76625,-40.3693 -117.68396,-3.82423 -113.29297,57.95508 5.47089,76.97296 64.44222,101.54497 131.1582,107.19336 40.33479,3.41487 89.66033,-2.91957 122.54297,-25.23242 C 455.80586,400.0469 492.01731,332.26928 492.01758,256 492.01713,125.65128 386.34872,19.982875 256,19.982422 Z" /></g></svg>
