<?xml version="1.0" encoding="UTF-8" standalone="no"?>
<svg
   viewBox="0 0 488.49295 250.53647"
   version="1.1"
   id="svg1"
   xml:space="preserve"
   width="488.49295"
   height="250.53647"
   xmlns="http://www.w3.org/2000/svg"
   xmlns:svg="http://www.w3.org/2000/svg"><defs
     id="defs1" /><!--! Font Awesome Free 6.7.2 by @fontawesome - https://fontawesome.com License - https://fontawesome.com/license/free (Icons: CC BY 4.0, Fonts: SIL OFL 1.1, Code: MIT License) Copyright 2024 Fonticons, Inc. --><g
     id="layer14"
     style="display:inline"
     transform="translate(-14.746094,-114.40494)"><path
       id="path46"
       style="display:inline;fill:#000000;stroke:none;stroke-width:1px;stroke-linecap:butt;stroke-linejoin:miter;stroke-opacity:1"
       d="m 419.03125,114.42969 c -0.40369,0.0667 -0.78755,0.26713 -1.05664,0.58203 -24.98948,29.2427 -58.09127,52.64083 -111.33399,60.18359 -17.98176,2.54743 -36.08124,5.33741 -52.29492,9.86328 l 10.10742,-25.09765 c -31.0841,13.78867 -63.22247,33.47818 -96.29296,58.39062 14.20963,-4.91299 28.29527,-8.11996 42.66015,-9.91406 20.69706,-2.58496 39.09456,1.56428 59.03516,4.0918 19.9406,2.52751 41.55321,3.6582 69.85156,-4.12891 l 15.73828,-4.33008 -9.66601,13.1543 c -21.65245,29.46643 -48.94895,40.67313 -78.44727,41.1875 l 11.33203,6.25977 -6.60156,7.45312 11.92578,8.63477 -6.64844,9.18359 -22.05859,-15.97266 5.50781,-6.21875 -21.73437,-12.00781 3.69726,-10.55078 c 32.0923,5.48373 59.71256,1.6493 83.22657,-22.15234 -22.30739,3.93669 -40.98228,2.83617 -57.54883,0.73632 -20.56073,-2.60612 -37.84797,-6.38231 -56.20313,-4.08984 -26.93034,3.36346 -52.53516,11.807 -80.73242,28.06055 -0.27785,0.23638 -0.55211,0.45238 -0.83008,0.68945 -25.70276,13.81428 -44.659999,12.24032 -62.109372,7.22656 -39.60595,33.82406 -48.259316,71.83024 -53.808594,109.27735 4.733291,-8.61973 9.033154,-19.19855 17.089844,-25.87891 6.005924,-4.97993 22.131803,-13.42715 32.617187,-17.28516 l 6.054687,9.27735 C 207.92861,293.02518 322.40717,352.20331 457.98633,200.72852 c 0.55223,-0.61697 0.56441,-1.63127 0.0293,-2.26368 l -0.21093,-0.25 c -0.53511,-0.63241 -1.52471,-0.76979 -2.21289,-0.30859 -38.3327,25.68998 -63.29272,35.07185 -92.11524,49.16406 12.97496,-22.42615 22.40938,-24.59985 32.61719,-29.49219 69.98589,-33.5424 99.03495,-85.82531 106.80273,-95.37695 0.52215,-0.64205 0.45102,-1.47992 -0.23828,-1.93945 l -0.43359,-0.28906 c -0.6893,-0.45953 -1.78981,-0.43566 -2.45899,0.0527 -28.77974,21.00294 -57.0153,42.30433 -111.28906,49.31055 14.24978,-17.17977 23.88338,-34.86585 32.36133,-52.55274 0.35807,-0.74701 0.0747,-1.70449 -0.63086,-2.13867 -0.34838,-0.21438 -0.77209,-0.28153 -1.17578,-0.21484 z m -237.2832,134.30664 c 4.65777,0.0222 9.28953,0.11594 13.94922,0.13281 -16.31914,7.96328 -20.19671,10.50231 -43.91797,24.0293 -12.66815,-0.11419 -27.06797,-4.4604 -36.25391,-8.69922 25.38097,-14.34068 46.03898,-15.55911 66.22266,-15.46289 z" /></g></svg>
