<?xml version="1.0" encoding="UTF-8" standalone="no"?>
<svg
   viewBox="0 0 493.74023 248.74214"
   version="1.1"
   id="svg1"
   xml:space="preserve"
   width="493.74023"
   height="248.74214"
   xmlns="http://www.w3.org/2000/svg"
   xmlns:svg="http://www.w3.org/2000/svg"><defs
     id="defs1" /><!--! Font Awesome Free 6.7.2 by @fontawesome - https://fontawesome.com License - https://fontawesome.com/license/free (Icons: CC BY 4.0, Fonts: SIL OFL 1.1, Code: MIT License) Copyright 2024 Fonticons, Inc. --><g
     id="layer9"
     style="display:inline"
     transform="translate(-10.339844,-150.35552)"><path
       id="path101"
       style="display:inline;opacity:1;fill:#000000;stroke:none;stroke-width:1.11556px;stroke-linecap:butt;stroke-linejoin:miter;stroke-opacity:1"
       d="m 402.42383,150.38086 c -75.2252,-0.82702 -127.9874,18.71905 -178.93945,39.95117 l 9.88671,-28.07226 -64.26757,18.65429 -37.54493,69.39258 53.49219,-40.02344 -4.54101,26.15625 C 95.232775,266.94993 48.731426,286.42911 17.853516,307.17969 l -7.513672,18.10742 C 80.615132,285.26144 148.89777,292.85445 177.68359,292.78125 l -1.0664,8.33203 c -44.88365,-1.05527 -71.40928,0.70429 -113.111331,11.41797 l 41.818361,17.36523 -3.85742,-11.68164 64.875,1.53125 9.46679,13.41016 c -43.13904,31.84766 -59.94074,48.99284 -71.4375,63.17969 l 1.58985,2.76172 c 54.88701,-23.01844 107.26839,-33.87792 160.22851,-37.88477 L 210.66602,299.75 h 11.11718 l 54.91211,60.78516 c 7.71539,-0.4543 15.44903,-0.77949 23.20703,-0.97461 l -62.01367,-68.64844 h 11.11719 l 61.81445,68.42578 c 8.17227,-0.0891 16.40187,0.0113 24.65235,0.1543 L 266.17383,282.7793 h 11.11719 l 64.68164,71.59961 17.74023,-51.70118 -72.82617,-47.8125 -4.51367,-2.82421 c 65.38691,-35.38812 148.41549,-36.02324 220.80273,-35.72657 l 0.9043,-4.63672 c -70.17366,-18.5865 -147.07476,-14.5114 -220.20313,-3.55078 l -5.98437,-8.09961 c 51.96223,-26.62101 110.71838,-47.43336 208.24804,-35.10156 l -0.24023,-6.23437 c -30.83158,-5.49476 -58.40149,-8.03488 -83.47656,-8.31055 z m -88.32031,112.7832 46.84179,30.75391 c 43.6738,-4.56392 86.51284,2.97309 128.8125,18.33398 l 1.5293,-4.35937 C 441.15648,272.58247 378.94991,264.84056 314.10352,263.16406 Z m 46.51171,63.16992 -12.31835,35.04688 0.17187,0.18945 c 39.60314,-6.23369 84.5675,-2.46256 124.84766,6.42774 l 1.84765,-5.65625 C 451.67677,349.83717 402.58821,329.43064 360.61523,326.33398 Z" /></g></svg>
