<?xml version="1.0" encoding="UTF-8" standalone="no"?>
<svg
   viewBox="0 0 472.03516 472.03516"
   version="1.1"
   id="svg1"
   xml:space="preserve"
   width="472.03516"
   height="472.03516"
   xmlns="http://www.w3.org/2000/svg"
   xmlns:svg="http://www.w3.org/2000/svg"><defs
     id="defs1" /><!--! Font Awesome Free 6.7.2 by @fontawesome - https://fontawesome.com License - https://fontawesome.com/license/free (Icons: CC BY 4.0, Fonts: SIL OFL 1.1, Code: MIT License) Copyright 2024 Fonticons, Inc. --><g
     id="layer4"
     style="display:inline"
     transform="translate(-19.982422,-19.982422)"><path
       id="path22"
       style="opacity:1;fill:#000000;stroke:none;stroke-width:9.16177;stroke-linecap:round;stroke-linejoin:round"
       d="M 256,19.982422 A 236.0184,236.0184 0 0 0 19.982422,256 236.0184,236.0184 0 0 0 256,492.01758 236.0184,236.0184 0 0 0 492.01758,256 236.0184,236.0184 0 0 0 256,19.982422 Z m 38.66992,42.65039 A 129.47125,99.525513 41.770423 0 1 397.2168,102.01562 129.47125,99.525513 41.770423 0 1 427.48047,262.49023 129.47125,99.525513 41.770423 0 1 264.61914,250.4707 129.47125,99.525513 41.770423 0 1 234.35742,89.996094 129.47125,99.525513 41.770423 0 1 294.66992,62.632812 Z M 149.01367,321.17578 a 82.665962,62.439186 30.695802 0 1 49.85938,14.59375 82.665962,62.439186 30.695802 0 1 39.21093,95.89063 82.665962,62.439186 30.695802 0 1 -102.95703,11.49218 82.665962,62.439186 30.695802 0 1 -39.210934,-95.89062 82.665962,62.439186 30.695802 0 1 53.097654,-26.08594 z" /></g></svg>
