<?xml version="1.0" encoding="UTF-8" standalone="no"?>
<svg
   viewBox="0 0 450.78085 463.96918"
   version="1.1"
   id="svg1"
   xml:space="preserve"
   width="450.78085"
   height="463.96918"
   xmlns="http://www.w3.org/2000/svg"
   xmlns:svg="http://www.w3.org/2000/svg"><defs
     id="defs1" /><!--! Font Awesome Free 6.7.2 by @fontawesome - https://fontawesome.com License - https://fontawesome.com/license/free (Icons: CC BY 4.0, Fonts: SIL OFL 1.1, Code: MIT License) Copyright 2024 Fonticons, Inc. --><g
     id="layer10"
     style="display:inline"
     transform="translate(-52.359407,-29.867186)"><path
       id="text1"
       style="font-weight:bold;font-size:96px;line-height:1.25;font-family:Serif;-inkscape-font-specification:'Serif Bold';text-align:end;text-anchor:end;white-space:pre;display:inline;opacity:1;fill:#000000;stroke:none"
       d="m 394.70313,44.593126 c -5.65625,0 -10.56389,1.611117 -14.37811,4.949285 -2.94701,2.579194 -5.26254,5.441656 -5.26254,10.504156 0,2.96875 0.67189,5.687542 2.01564,8.156292 1.375,2.46875 3.32823,4.703279 5.85948,6.703279 0.64362,0.508546 1.50781,1.012252 2.52833,1.526933 2.19527,-1.113456 4.6206,-1.697887 7.08209,-1.706573 4.44176,0.0026 8.67675,1.877053 11.66511,5.163235 2.55995,-0.679162 5.0704,-1.344479 8.03579,-2.14033 -2.79941,-2.238086 -6.6324,-4.56294 -11.54573,-6.978316 -5.74758,-2.857127 -15.08032,-7.741976 -14.56723,-13.593728 0.57963,-6.610776 6.74029,-7.293521 9.41097,-7.293521 4.125,0 8.02052,2.539679 11.48436,5.861428 3.11861,2.990683 3.58758,4.722987 5.59839,9.95659 h 3.02653 l -0.51549,-21.029789 h -2.51104 c -0.26818,1.866802 -0.8436,2.497954 -1.4307,2.899333 -1.26784,0.866788 -4.15092,0.393947 -5.15208,-0.118829 -2.09375,-1.03125 -3.87496,-1.734367 -5.34371,-2.109367 -1.9375,-0.5 -3.93756,-0.750078 -6.00006,-0.750078 z m 43.90786,28.547861 c -0.11116,-0.01465 -0.22672,-0.0079 -0.34087,0.02315 -4.47124,1.218079 -25.97054,7.069182 -37.14488,10.005126 -7.5656,1.987779 -19.35468,6.134559 -23.35423,9.051142 -0.38126,-1.069455 -0.71946,-2.297775 -1.02093,-3.777725 h -1.73446 v 22.30205 h 2.83908 c 1.02332,-4.57186 4.96348,-5.1176 8.68154,-3.2522 3.49573,1.75386 8.45599,2.8783 10.21405,3.12528 2.46304,0.34601 10.97507,1.11177 16.6091,-4.5967 3.97669,-4.02923 6.23438,-8.421814 6.23438,-13.734317 0,-2.987457 -0.66452,-5.731889 -1.96878,-8.242207 -2.34445,0.727244 -6.2767,1.953943 -7.62714,2.370737 -0.43602,0.134572 -1.23182,0.355551 -2.07171,0.591359 0.26398,1.147811 0.39861,2.321568 0.4014,3.499339 -0.0154,1.345569 -0.20291,2.683639 -0.55788,3.981632 -0.0642,0.309453 -0.15584,0.613112 -0.25635,0.915212 -0.007,0.02438 -0.0137,0.04874 -0.0206,0.07308 l -0.006,-0.0031 c -2.46144,7.186205 -14.88709,12.054605 -23.37291,5.011205 -1.06213,-0.968659 -1.97927,-1.803182 -2.79417,-2.638516 2.56745,-7.299938 24.86003,-12.737502 27.9777,-13.699726 9.36031,-2.888932 25.33422,-7.825033 29.38413,-9.076526 0.52752,-0.163014 0.82891,-0.724435 0.67309,-1.254127 l -0.0159,-0.05439 c -0.10017,-0.340517 -0.39431,-0.575876 -0.72776,-0.619811 z m -45.66994,3.157634 c -1.31765,-0.0039 -2.49368,0.184437 -3.43044,0.400283 0,0 -0.84906,1.836551 -0.64046,2.62039 0.23207,0.871996 1.35263,0.50259 1.69347,1.33809 0.23861,0.584924 1.07739,1.172751 0.68815,1.67031 -0.62136,0.79427 -0.29905,1.724601 0.86668,1.761804 0.71817,0.02292 0.95363,-0.920743 1.1113,-1.621774 0.10816,-0.480874 -0.17757,-0.942211 0.0285,-1.389973 0.26394,-0.57364 1.55516,-0.01361 2.1473,-0.232918 0.61222,-0.226743 0.83913,-1.397814 1.40308,-1.068909 0.23,0.134138 0.36704,0.499253 0.27616,0.74952 -0.27947,0.769589 -1.5145,0.683288 -2.13029,1.222886 -0.63495,0.556385 -1.53865,2.012015 -1.53865,2.012015 l 9.23106,-2.879807 c -3.22358,-3.632766 -6.80699,-4.573244 -9.70582,-4.581917 z m -8.1323,4.355694 c -0.0307,8.52e-4 -0.0602,0.0036 -0.0881,0.0084 -0.68954,0.116655 -0.68206,1.263674 -1.22735,1.701552 -0.40268,0.323362 -1.0708,0.2356 -1.42261,0.613674 -0.44271,0.475754 -0.23949,1.330474 -0.64157,1.841024 -0.59522,0.755787 -1.8448,0.796068 -2.4268,1.562081 -0.63713,0.838572 -0.81387,4.026638 -0.86472,4.128355 1.17226,-0.823747 1.15129,-1.306571 5.21623,-2.956795 0.31034,-0.119364 -0.3739,-1.931841 -0.69736,-2.315227 -0.15554,-0.184363 0.54731,-0.303019 0.78104,-0.362626 0.48661,-0.124096 1.42908,0.672889 1.70155,0.251049 0.32538,-0.503749 -0.024,-1.95278 0.69736,-3.682047 0.16385,-0.392813 -0.56682,-0.802179 -1.02762,-0.789409 z m 21.81334,6.282633 -3.36768,1.007263 c 0,0 0.89836,0.205528 1.15566,0.563744 0.33306,0.463685 -0.11401,1.273498 0.33445,1.626795 1.10849,0.87327 1.81051,2.763365 1.84493,2.756793 0.24322,-0.04643 0.37014,-0.140831 0.4968,-0.730551 0.36102,-1.680979 0.0724,-3.580355 -0.46416,-5.224044 z m -9.85394,8.481819 c -1.10696,-0.0083 -1.88001,1.863183 -3.06559,1.924706 -2.094,0.108664 -4.22195,0.892339 -5.91359,2.400026 -0.42761,0.381111 -1.33925,-0.267054 -2.03684,-0.456072 -0.31564,-0.371627 -0.8845,-1.064176 -1.14311,-1.525539 -0.27777,-0.495559 -0.61367,-1.589975 -0.61367,-1.589975 -0.46918,0.284738 -0.85106,0.831347 -1.17156,1.56208 l 0.36262,0.306838 c 0,0 0.26758,-0.534065 0.5021,-0.502098 0.2434,0.03318 0.23631,0.43088 0.36263,0.641569 0.34733,0.579338 0.4437,1.515599 1.06416,1.740325 0.037,0.08362 0.0769,0.159453 0.1074,0.212273 0.53729,0.9293 3.38051,1.13614 3.38051,1.13614 l 1.58802,0.95733 c 2.63064,0.61233 2.73619,0.49239 3.73449,0.5286 l 1.11577,-0.78104 3.03518,0.21311 c 0.82607,-0.24293 1.8995,-0.59985 3.11523,-1.58468 0,0 -1.53031,-1.246607 -2.07784,-1.919961 -0.81351,-1.000452 -0.86566,-2.936748 -2.11997,-3.235738 -0.077,-0.01835 -0.15215,-0.02734 -0.22594,-0.02789 z"
       transform="matrix(7.0018793,0,0,7.0018793,-2573.4547,-282.3685)" /></g></svg>
