<?xml version="1.0" encoding="UTF-8" standalone="no"?>
<svg
   viewBox="0 0 505.84406 455.27734"
   version="1.1"
   id="svg1"
   xml:space="preserve"
   width="505.84406"
   height="455.27734"
   xmlns="http://www.w3.org/2000/svg"
   xmlns:svg="http://www.w3.org/2000/svg"><defs
     id="defs1" /><!--! Font Awesome Free 6.7.2 by @fontawesome - https://fontawesome.com License - https://fontawesome.com/license/free (Icons: CC BY 4.0, Fonts: SIL OFL 1.1, Code: MIT License) Copyright 2024 Fonticons, Inc. --><g
     id="layer3"
     style="display:inline"
     transform="translate(-3.0779694,-24.345703)"><path
       id="path1-7"
       style="display:inline;fill:#000000;stroke:none;stroke-width:0.529777"
       d="M 256,24.345703 C 237.83192,139.14388 164.73047,143.79627 164.73047,264.2832 c 0,84.15954 55.14931,113.76563 91.26953,113.76563 36.12167,0 91.26953,-29.60609 91.26953,-113.76563 0,-120.48693 -73.10048,-125.13932 -91.26953,-239.937497 z m -70.92578,27.949219 c 0,0 -98.736244,73.501628 -100.595704,185.593748 -1.19901,72.27887 21.247344,98.49461 52.753904,118.98633 28.59015,18.5949 49.32468,21.35338 40.48828,14.1582 -19.16817,-15.60806 -46.82874,-51.09268 -46.82874,-104.28515 0,-64.57041 13.9235,-96.22356 38.08851,-126.39453 1.78122,-2.52485 2.83984,-3.88282 2.83984,-3.88282 -5.11526,-6.63112 -6.85483,-9.91449 -8.11133,-31.39258 -1.25651,-21.478058 21.36524,-52.783198 21.36524,-52.783198 z m 141.85156,0 c 0,0 22.62175,31.30514 21.36524,52.783198 -1.2565,21.47809 -2.99607,24.76146 -8.11133,31.39258 0,0 1.05862,1.35797 2.83984,3.88282 24.16501,30.17097 38.08851,61.82412 38.08851,126.39453 0,53.19247 -27.66057,88.67709 -46.82874,104.28515 -8.8364,7.19518 11.89813,4.4367 40.48828,-14.1582 31.50656,-20.49172 53.95291,-46.70746 52.7539,-118.98633 C 425.66202,125.79655 326.92578,52.294922 326.92578,52.294922 Z M 92.951172,62.527344 C 89.460762,64.466587 -5.0503919,111.4649 3.6425781,238.00781 9.3770881,321.48468 31.205573,348.4373 68.257812,370.92578 108.45018,395.32012 142.39972,391.73177 127.13281,385.37891 99.998222,374.08766 78.033893,346.93925 65.189453,322.58398 52.041043,297.65233 48.918846,260.75895 51.103516,238.2207 c 2.46764,-25.45743 6.941259,-44.25868 17.318359,-70.23047 -8.58309,-7.80577 -35.541913,-46.43275 24.529297,-105.462886 z m 326.097658,0 c 60.07121,59.030136 33.11239,97.657116 24.52929,105.462886 10.3771,25.97179 14.85072,44.77304 17.31836,70.23047 2.18467,22.53825 -0.93752,59.43163 -14.08593,84.36328 -12.84444,24.35527 -34.80877,51.50368 -61.94336,62.79493 -15.26691,6.35286 18.68263,9.94121 58.875,-14.45313 37.05224,-22.48848 58.88072,-49.4411 64.61523,-132.91797 C 517.05039,111.4649 422.53924,64.466587 419.04883,62.527344 Z M 256,400.3457 c -118.43611,0 -141.52311,37.22214 -193.970703,40.58008 -33.123604,-4.10564 -56.2070314,-10.93164 -56.2070314,-10.93164 0,0 49.2985864,43.17619 104.5078144,43.31445 43.59731,0 77.86176,-12.34237 112.58008,-18.24414 1.4269,6.55382 9.47147,24.5586 33.08984,24.5586 23.61941,0 31.66476,-18.00446 33.0918,-24.5586 34.71808,5.90187 68.98187,18.24414 112.57812,18.24414 55.2103,-0.13885 104.50977,-43.31445 104.50977,-43.31445 0,0 -23.08538,6.826 -56.20899,10.93164 C 397.52205,437.56784 374.43611,400.3457 256,400.3457 Z" /></g></svg>
