<?xml version="1.0" encoding="UTF-8" standalone="no"?>
<svg
   viewBox="0 0 499.71875 415.51367"
   version="1.1"
   id="svg1"
   xml:space="preserve"
   width="499.71875"
   height="415.51367"
   xmlns="http://www.w3.org/2000/svg"
   xmlns:svg="http://www.w3.org/2000/svg"><defs
     id="defs1" /><!--! Font Awesome Free 6.7.2 by @fontawesome - https://fontawesome.com License - https://fontawesome.com/license/free (Icons: CC BY 4.0, Fonts: SIL OFL 1.1, Code: MIT License) Copyright 2024 Fonticons, Inc. --><g
     id="layer16"
     style="display:inline;fill:#000000;stroke:none"
     transform="translate(-6.140625,-54.443359)"><path
       id="path59"
       style="display:inline;opacity:1;fill:#000000;stroke:none;stroke-width:1px;stroke-linecap:butt;stroke-linejoin:miter;stroke-opacity:1"
       d="m 256.71875,54.443359 c -17.50707,28.188739 -60.06577,72.051771 -81.26758,96.679691 -24.51037,33.93254 -36.45382,58.99509 -41.0039,82.66797 -4.21576,21.93341 -2.28516,43.73952 2.84961,71.66406 31.80396,-27.69604 80.60487,-50.06898 112.4414,-76.61914 L 257,222.7793 l 7.26172,6.05664 c 31.26017,26.06951 78.88818,48.10715 110.71094,75.11523 4.92453,-27.19772 6.71922,-48.62533 2.58007,-70.16015 -4.56742,-23.7631 -16.59391,-48.9339 -41.29492,-83.06446 C 314.09569,123.24042 273.94543,80.200124 256.71875,54.443359 Z M 150.31641,86.583984 C 141.58443,117.8408 120.49152,149.29202 103.16992,180.54883 98.907044,169.46359 86.594284,156.48795 84.240234,150.07812 75.072786,176.16037 61.194313,201.47678 53.953125,228.42773 l 57.345705,57.7461 c -2.44942,-19.70116 -2.72411,-37.91657 0.8789,-56.66211 5.92976,-30.85093 22.08187,-61.92913 53.20118,-102.95508 -5.48338,-12.18833 -11.07928,-22.87611 -15.0625,-39.972656 z m 211.36718,0 c -3.98322,17.096546 -9.57912,27.784326 -15.0625,39.972656 31.11931,41.02595 47.27142,72.10415 53.20118,102.95508 3.60301,18.74554 3.32832,36.96095 0.8789,56.66211 l 57.34571,-57.7461 c -7.24119,-26.95095 -21.11967,-52.26736 -30.28711,-78.34961 -2.35405,6.40982 -14.66681,19.38547 -18.92969,30.47071 -17.3216,-31.25681 -38.41451,-62.70803 -47.14649,-93.964846 z M 11.224609,229.81055 c 15.253423,49.9333 -11.79321598,95.66174 91.849611,154.3789 -0.76181,-5.51897 -0.90046,-11.14816 -0.33203,-16.69922 1.48544,-14.50618 6.93346,-28.94214 15.47461,-41.33398 -0.0727,-0.35459 -0.13491,-0.68782 -0.20703,-1.04102 L 49.347656,255.97461 c -0.0014,0.0255 -0.0045,0.0506 -0.0059,0.0762 -14.28095,-12.61836 -28.664408,-15.12837 -38.117188,-26.24023 z m 489.550781,0 c -9.45278,11.11186 -23.83624,13.62187 -38.11719,26.24023 -0.001,-0.0255 -0.004,-0.0506 -0.006,-0.0762 L 394.60156,324.5 c 9.22038,12.75028 15.10387,27.83038 16.65625,42.99023 0.52555,5.13231 0.45897,10.3339 -0.14648,15.45313 101.07801,-58.11942 74.51865,-103.55309 89.66406,-153.13281 z M 257,251.87695 c -39.55107,30.74719 -92.10024,55.5358 -114.51367,80.01563 -9.40949,10.27699 -15.84341,24.80143 -17.18555,37.9082 -1.34214,13.10677 1.91322,23.8086 9.99414,30.39844 l -0.37695,0.46289 c 8.85745,4.203 18.34939,8.46857 28.64453,12.81445 -14.24382,3.82137 -28.44188,4.73281 -42.58789,4.28125 l -0.0117,0.0156 c -0.006,-0.005 -0.0114,-0.0106 -0.0176,-0.0156 -38.741556,-1.24199 -77.080228,-12.99719 -114.804685,-5.45312 37.15754,17.3855 77.768185,40.88155 115.234375,41.99219 47.71992,1.41457 69.33239,-8.67431 93.91211,-15.11915 2.54743,11.44385 14.69416,30.7793 40.71289,30.7793 26.01873,0 38.16546,-19.33545 40.71289,-30.7793 24.57972,6.44484 46.19219,16.53371 93.91211,15.11915 37.46619,-1.11062 78.07683,-24.60669 115.23438,-41.99219 -37.04586,-7.40837 -74.68456,3.78403 -112.71485,5.36719 -0.0388,0.0319 -0.0684,0.0698 -0.10742,0.10156 l -0.0781,-0.0957 c -14.78565,0.60325 -29.6284,-0.20561 -44.52148,-4.20117 11.16555,-4.71331 21.42425,-9.33505 30.9043,-13.88086 7.58583,-6.62824 10.66148,-17.05997 9.35742,-29.79492 -1.34214,-13.10677 -7.77606,-27.63121 -17.18555,-37.9082 C 349.10024,307.41275 296.55107,282.62414 257,251.87695 Z" /></g></svg>
